<?xml version="1.0" standalone="no"?>
<!DOCTYPE svg PUBLIC "-//W3C//DTD SVG 20010904//EN"
 "http://www.w3.org/TR/2001/REC-SVG-20010904/DTD/svg10.dtd">
<svg version="1.0" xmlns="http://www.w3.org/2000/svg"
 width="434.000000pt" height="897.000000pt" viewBox="0 0 434.000000 897.000000"
 preserveAspectRatio="xMidYMid meet">
<metadata>
Created by potrace 1.16, written by Peter Selinger 2001-2019
</metadata>
<g transform="translate(0.000000,897.000000) scale(0.100000,-0.100000)"
fill="#000000" stroke="none">
<path d="M491 8313 c0 -302 4 -587 7 -635 4 -49 4 -88 0 -88 -5 0 -8 -391 -8
-870 l0 -870 30 0 30 0 0 -150 0 -150 -30 0 -30 0 5 -1742 c3 -959 5 -1767 5
-1795 0 -41 4 -53 15 -53 11 0 15 12 15 45 l0 45 69 0 c64 0 70 -2 74 -22 l4
-23 2 23 1 22 495 0 495 0 0 -145 0 -145 -25 0 c-14 0 -25 -4 -25 -10 0 -5 11
-10 25 -10 24 0 25 -2 25 -64 0 -63 -1 -65 -27 -69 -25 -4 -25 -4 7 -7 l35 -3
-35 -7 c-33 -7 -34 -7 -6 -9 l29 -1 -6 -80 c-4 -70 -3 -80 11 -80 15 0 17 19
13 197 -2 109 0 302 4 429 l7 231 24 -5 c23 -4 24 -1 24 42 l0 46 36 0 c21 0
33 -4 29 -10 -4 -6 -11 -8 -16 -5 -5 4 -9 -5 -9 -19 0 -16 6 -26 14 -26 8 0
17 -8 19 -17 4 -14 5 -12 6 5 0 12 6 22 11 22 6 0 10 7 10 15 0 8 -4 15 -10
15 -5 0 -10 5 -10 10 0 6 16 10 36 10 33 0 35 -2 34 -28 -4 -60 -2 -64 30 -57
25 5 29 4 24 -9 -5 -14 8 -16 104 -16 97 0 111 -2 115 -17 4 -14 5 -12 6 5 1
21 -2 22 -84 22 -50 0 -85 4 -85 10 0 6 83 10 230 10 l230 0 0 -240 0 -240
-230 0 -231 0 2 143 c0 78 -2 141 -5 140 -3 -2 -16 -3 -28 -3 l-23 0 3 -624 2
-624 40 -7 40 -7 0 -79 0 -79 28 1 c16 1 20 3 10 6 -15 4 -18 17 -19 81 -1 89
-6 107 -34 107 -19 0 -20 8 -23 153 l-3 152 46 0 c42 0 44 -1 33 -19 -10 -17
-9 -23 6 -40 11 -12 31 -21 46 -21 15 0 35 9 46 21 15 17 16 23 6 40 -11 18
-9 19 33 19 38 0 45 3 45 20 0 19 -7 20 -115 20 l-115 0 0 121 c0 109 2 120
18 117 14 -3 17 -16 20 -81 2 -65 6 -77 20 -77 11 0 13 3 5 8 -8 5 -14 73 -19
215 l-7 207 92 0 91 0 0 -120 c0 -100 -2 -120 -15 -120 -11 0 -15 -10 -14 -37
1 -21 3 -30 6 -21 3 12 17 18 45 20 45 3 63 26 29 35 -19 5 -21 12 -21 94 l0
89 35 0 c27 0 42 -7 60 -27 l25 -28 25 28 c13 15 32 27 41 27 15 0 16 -15 9
-177 -5 -115 -11 -181 -19 -185 -7 -5 -5 -8 7 -8 16 0 17 -15 15 -212 l-3
-213 -133 0 c-119 0 -132 -2 -132 -17 0 -16 13 -18 135 -18 113 0 135 -2 135
-15 0 -12 18 -15 104 -15 74 0 106 -4 109 -12 3 -7 6 -3 6 10 1 21 -3 22 -86
23 -49 1 -75 4 -59 6 44 7 51 20 48 84 -3 53 -2 59 16 59 11 0 23 -7 26 -16 3
-8 2 -12 -4 -9 -6 3 -7 -1 -4 -10 4 -9 13 -14 21 -11 11 4 11 1 3 -15 -6 -11
-15 -17 -21 -14 -5 4 -9 -5 -9 -19 0 -16 6 -26 14 -26 8 0 17 -6 19 -12 3 -8
6 -6 6 5 1 9 6 17 11 17 14 0 12 28 -2 33 -10 3 -10 9 1 29 7 15 10 31 7 37
-4 6 0 11 9 11 14 0 16 -10 13 -60 -2 -36 1 -60 7 -60 6 0 10 26 9 59 l-1 60
44 -2 c23 -1 43 3 43 8 0 6 -20 9 -45 8 l-45 -2 0 209 0 209 75 0 75 0 0 -159
0 -160 60 0 60 0 0 -30 c0 -23 4 -30 20 -30 17 0 20 -6 19 -37 0 -21 -3 -32
-6 -25 -6 14 -33 16 -33 2 0 -5 -8 -10 -17 -10 -17 -1 -17 -1 0 -11 9 -6 15
-14 12 -20 -4 -5 5 -9 19 -9 19 0 26 -5 26 -19 0 -18 -8 -20 -114 -19 -62 0
-118 -2 -124 -6 -15 -9 -40 3 -45 22 -3 10 -5 0 -6 -20 -1 -32 2 -38 19 -38
20 0 20 -7 20 -345 l0 -345 -24 0 c-13 0 -27 -7 -30 -16 -10 -25 -7 -94 4 -94
6 0 10 20 10 45 l0 45 38 -2 c93 -3 1162 5 1200 9 23 3 42 9 42 15 0 5 -13 7
-30 3 -30 -6 -30 -6 -32 37 0 24 -2 55 -3 71 -2 24 2 27 26 27 16 0 29 5 29
10 0 6 -18 10 -40 10 l-40 0 -1 78 c-1 42 -3 88 -4 102 -1 14 -5 100 -10 193
l-8 167 42 0 c27 0 40 4 36 10 -4 6 -15 8 -24 5 -40 -12 -51 4 -51 71 l0 64
35 0 c19 0 35 5 35 10 0 6 -18 10 -39 10 l-39 0 -6 48 c-5 45 -20 347 -21 442
0 45 0 45 38 48 20 2 37 8 37 14 0 6 -11 8 -29 5 -27 -6 -29 -4 -35 40 -11 85
-9 93 24 93 17 0 30 5 30 10 0 6 -18 10 -40 10 l-40 0 -2 73 c-1 39 -2 86 -3
102 -1 17 -5 105 -10 198 l-8 167 37 0 c20 0 36 5 36 11 0 7 -11 9 -30 6 l-30
-7 0 70 c0 68 1 70 24 70 14 0 28 5 31 10 4 6 -10 10 -33 10 l-40 0 -6 128
c-4 70 -9 159 -11 197 -2 39 -5 102 -6 140 l-3 70 37 3 c20 2 37 8 37 14 0 6
-13 8 -29 6 -34 -5 -41 8 -41 85 0 46 1 47 30 47 43 0 37 18 -7 22 l-38 3 -12
215 c-6 118 -12 239 -12 268 l-1 52 35 0 c19 0 35 5 35 11 0 7 -12 10 -29 7
-29 -4 -29 -4 -33 54 -4 71 -2 78 22 78 10 0 22 5 25 10 4 6 -8 10 -28 10
l-35 0 -6 83 c-3 45 -8 143 -11 217 -3 74 -8 159 -11 188 l-5 52 40 0 c23 0
41 5 41 10 0 6 -13 10 -29 10 -34 0 -41 14 -41 80 0 45 1 48 33 56 l32 8 -42
3 -43 4 -1 82 c0 45 -2 93 -4 107 -1 14 -6 98 -10 188 l-7 162 36 0 c20 0 36
5 36 10 0 6 -13 10 -30 10 -23 0 -30 5 -30 19 0 10 -3 38 -6 63 -6 44 -6 45
27 55 l34 11 -42 1 -43 1 0 43 c0 23 -3 106 -6 184 -6 115 -4 142 7 146 8 2 6
3 -3 2 -16 -3 -18 7 -18 81 l0 84 40 0 c22 0 40 5 40 10 0 6 -16 10 -35 10
l-35 0 0 65 0 65 30 0 c19 0 30 5 30 14 0 11 -10 13 -39 9 l-38 -5 -6 83 c-6
70 -17 308 -21 424 -1 28 2 30 37 33 43 4 51 22 8 22 -24 0 -29 5 -35 31 -3
17 -6 47 -6 65 0 29 4 35 33 43 l32 9 -42 1 -43 1 -2 68 c-2 75 -2 71 -13 305
l-8 167 37 0 c20 0 36 5 36 10 0 6 -18 10 -40 10 l-40 0 0 64 0 65 43 9 42 10
-42 1 -42 1 -4 68 -3 67 -2 -67 c-1 -49 -6 -68 -15 -68 -11 0 -15 35 -21 157
-3 86 -10 161 -15 167 -7 8 -70 8 -218 1 l-208 -10 -6 -70 -5 -70 -2 82 -2 82
28 4 27 4 -27 2 c-26 1 -28 4 -28 44 0 23 -11 258 -25 522 -14 264 -25 497
-25 518 l0 37 -98 0 -98 0 1 -52 0 -53 -36 -3 -36 -3 -7 50 -7 51 -174 0 -175
0 0 -30 0 -30 -775 0 -775 0 0 35 0 35 -180 0 -180 0 1 -547z m2253 496 c3
-17 6 -51 6 -75 0 -40 -2 -44 -24 -44 -22 0 -25 5 -28 45 -2 25 -6 45 -10 45
-5 0 -55 0 -113 0 l-105 0 0 -45 c0 -43 -1 -45 -30 -45 l-30 0 0 75 0 75 164
0 164 0 6 -31z m-1924 -11 c0 -18 3 -50 6 -70 6 -37 6 -38 -25 -38 -30 0 -31
1 -31 45 l0 45 -100 0 -100 0 0 -202 c0 -112 0 -341 0 -510 l1 -308 -26 0 -25
0 0 535 0 535 150 0 150 0 0 -32z m2184 10 c3 -13 19 -324 36 -693 17 -368 35
-696 39 -727 7 -50 5 -57 -11 -61 -25 -7 -29 4 -29 70 1 32 -13 329 -31 661
-25 473 -29 608 -20 623 20 31 15 76 -10 93 -34 24 -63 19 -91 -14 -25 -30
-45 -41 -31 -18 5 7 7 29 5 50 l-3 38 71 0 c65 0 71 -2 75 -22z m-1954 -98 c0
-28 3 -30 35 -30 32 0 35 2 35 30 l0 30 100 0 100 0 0 -25 c0 -14 -6 -25 -12
-25 -9 0 -13 -15 -12 -42 l1 -43 -46 -5 c-45 -5 -46 -6 -49 -44 -2 -21 1 -43
7 -49 8 -8 11 1 11 31 l0 42 40 0 c40 0 40 0 40 -39 l0 -38 -55 -6 c-30 -3
-80 -3 -110 0 l-55 6 0 38 c0 39 0 39 40 39 l40 0 0 -42 c0 -30 3 -39 11 -31
6 6 9 28 7 49 l-3 39 -55 0 -55 0 0 -52 c1 -37 -3 -53 -12 -53 -9 0 -13 -17
-13 -55 0 -42 -3 -55 -15 -55 -13 0 -15 23 -13 155 2 103 -1 155 -7 155 -7 0
-9 -15 -7 -35 4 -34 4 -35 -34 -37 l-39 -1 37 -4 37 -4 0 -115 0 -114 -54 0
-54 0 0 153 c0 83 -3 152 -7 152 -5 0 -7 -15 -5 -32 2 -30 0 -33 -26 -34 l-28
-2 28 -4 27 -4 0 -90 c0 -64 -3 -89 -12 -89 -9 0 -12 15 -10 50 l4 50 -62 0
-62 0 4 -48 3 -48 -83 0 -82 1 1 123 1 122 129 0 129 0 0 30 0 30 105 0 105 0
0 -30z m540 0 c0 -28 3 -30 35 -30 32 0 35 2 35 30 l0 30 100 0 100 0 0 -30
c0 -28 3 -30 35 -30 32 0 35 2 35 30 l0 30 100 0 100 0 0 -30 c0 -16 4 -30 9
-30 5 0 10 -40 10 -90 1 -65 -3 -90 -12 -90 -8 0 -11 15 -9 50 l4 50 -61 0
-61 0 0 -45 c0 -25 5 -45 10 -45 6 0 10 18 10 40 l0 40 40 0 c40 0 40 0 40
-39 l0 -38 -55 -6 c-30 -3 -80 -3 -110 0 l-55 6 0 38 c0 39 0 39 40 39 l40 0
0 -40 c0 -22 5 -40 10 -40 6 0 10 20 10 45 l0 45 -61 0 -61 0 4 -50 c2 -35 -1
-50 -9 -50 -7 0 -13 -11 -13 -25 0 -14 -4 -25 -9 -25 -5 0 -9 36 -10 80 -1 76
0 80 21 81 23 2 23 2 0 6 -21 4 -23 9 -20 39 2 20 0 34 -7 34 -7 0 -9 -14 -7
-35 4 -31 1 -35 -19 -36 -24 -2 -24 -2 -1 -6 21 -4 22 -9 21 -84 -1 -52 -5
-79 -13 -79 -8 0 -7 -3 1 -8 8 -5 12 -39 12 -102 0 -122 0 -125 7 -117 4 3 6
53 6 112 -1 61 3 105 8 105 6 0 10 -16 10 -35 l0 -35 150 0 150 0 0 -58 0 -59
-117 3 c-65 1 -133 0 -150 -3 l-33 -5 0 -64 0 -64 150 0 150 0 0 -55 c0 -37
-4 -55 -12 -55 -9 0 -12 15 -10 50 l4 50 -61 0 -61 0 0 -45 c0 -25 5 -45 10
-45 6 0 10 18 10 40 l0 40 40 0 c40 0 40 0 40 -39 l0 -38 -55 -6 c-30 -3 -80
-3 -110 0 l-55 6 0 38 c0 39 0 39 40 39 l40 0 0 -40 c0 -22 5 -40 10 -40 6 0
10 20 10 45 l0 45 -61 0 -61 0 4 -50 c2 -35 -1 -50 -9 -50 -7 0 -13 -9 -13
-20 0 -11 -4 -20 -10 -20 -5 0 -10 6 -10 13 0 9 -2 9 -8 1 -4 -7 -18 -14 -32
-17 l-25 -4 27 -2 c27 -1 27 -1 27 -81 l0 -80 -59 0 -60 0 0 80 c0 44 -3 80
-8 80 -4 0 -6 -36 -4 -80 l4 -80 -161 0 -161 0 0 71 0 70 98 -1 c53 -1 121 -1
150 -1 l52 1 0 125 c0 93 -3 125 -12 125 -9 0 -12 15 -10 49 l4 49 -59 4 c-32
2 -59 0 -61 -4 -2 -5 -8 -8 -13 -8 -6 0 -8 4 -5 8 3 5 -5 7 -17 6 -12 -1 -43
-3 -69 -3 l-48 -1 0 -45 c0 -25 5 -45 10 -45 6 0 10 18 10 40 l0 39 44 -1 c43
0 44 -1 42 -34 -2 -19 -5 -36 -7 -38 -2 -2 -28 -6 -56 -9 l-53 -6 0 80 0 81
88 -2 c48 -1 115 -2 149 -1 l62 1 4 48 c2 26 4 0 5 -57 2 -130 13 -128 13 3 0
67 4 96 12 96 9 0 9 2 1 8 -6 4 -12 41 -13 85 l-2 77 28 1 28 2 -29 4 c-25 4
-28 8 -24 39 2 19 0 34 -4 34 -4 0 -9 -55 -9 -122 -1 -68 -3 -115 -6 -105 -5
19 -6 19 -163 23 -63 1 -121 3 -127 3 -15 1 -17 191 -2 191 5 0 9 14 9 30 l0
30 100 0 100 0 0 -30z m810 0 c0 -29 1 -30 50 -30 49 0 50 -1 50 -30 0 -24 -4
-30 -22 -31 l-23 -2 22 -4 c22 -4 23 -9 22 -109 0 -65 -4 -104 -11 -104 -6 0
-9 20 -6 50 2 29 -1 50 -7 50 -5 0 -10 21 -10 47 l0 48 -55 0 -55 0 -1 -45
c-1 -39 -1 -40 3 -7 4 37 5 37 49 37 l44 0 0 -40 0 -40 -67 0 -68 0 0 47 0 48
-48 3 -49 3 4 45 c2 30 -1 44 -9 44 -7 0 -13 11 -13 25 l0 25 100 0 100 0 0
-30z m430 20 c0 -5 7 -10 15 -10 8 0 15 -7 15 -17 0 -9 3 -14 6 -10 3 3 15 -3
27 -14 11 -10 33 -19 49 -19 21 0 28 -5 28 -20 0 -15 -7 -20 -27 -21 l-28 -2
28 -4 c28 -4 28 -6 26 -64 -1 -32 1 -62 4 -66 4 -3 7 -16 7 -28 0 -17 -6 -22
-24 -22 -21 0 -23 3 -17 31 13 58 6 66 -60 66 -46 0 -59 -3 -59 -15 0 -8 -7
-15 -15 -15 -8 0 -15 7 -15 15 0 12 -13 15 -59 15 -65 0 -71 -6 -63 -62 5 -35
22 -37 22 -3 0 17 6 25 18 26 16 1 16 2 0 6 -34 9 -17 23 27 23 25 0 45 -4 45
-10 0 -5 -6 -10 -12 -10 -10 0 -10 -2 0 -9 8 -4 12 -19 10 -32 -2 -20 -9 -24
-43 -26 -22 -1 -48 -2 -57 -2 -10 -1 -18 -8 -18 -16 0 -8 -6 -15 -13 -15 -18
0 -22 81 -5 92 10 6 10 8 1 8 -9 0 -13 18 -13 55 0 37 4 55 13 56 10 0 10 2 0
6 -7 2 -13 18 -13 34 l0 29 64 0 c63 0 64 0 70 30 5 25 10 30 36 30 16 0 30
-4 30 -10z m-210 -80 c0 -27 -3 -30 -32 -32 l-33 -1 33 -4 c32 -4 32 -5 32
-59 0 -36 -4 -54 -12 -54 -10 0 -10 -2 0 -8 7 -5 11 -26 10 -50 l-1 -42 -53 0
-52 0 0 140 -1 140 55 0 c53 0 54 0 54 -30z m330 -285 l0 -55 -70 0 -70 0 0
55 0 55 70 0 70 0 0 -55z m30 23 c0 -18 9 -202 20 -408 11 -206 20 -381 20
-388 0 -11 -19 -13 -87 -9 -49 3 -124 2 -168 -3 -76 -7 -77 -7 -22 -8 l57 -2
0 -45 0 -45 60 0 60 0 0 44 0 43 50 2 c49 1 50 0 50 -28 0 -16 3 -42 6 -59 l6
-31 -138 0 c-87 0 -131 4 -119 9 18 8 17 9 -8 9 -18 1 -26 -3 -22 -10 4 -6 1
-10 -6 -8 -31 4 -162 -1 -157 -7 3 -3 105 -5 227 -5 l221 0 0 -35 0 -34 -255
0 c-226 0 -256 2 -262 16 -5 15 -7 15 -15 0 -8 -13 -30 -16 -143 -16 -128 0
-135 1 -135 20 0 18 7 20 60 20 47 0 60 3 60 15 0 9 6 15 13 14 29 -4 140 1
135 6 -3 3 -65 6 -137 6 -121 -1 -131 1 -131 18 0 10 9 21 21 24 14 4 19 1 16
-7 -3 -8 3 -12 16 -11 11 1 23 8 25 15 3 9 9 5 18 -11 7 -13 13 -19 14 -14 0
18 -37 67 -66 86 l-29 20 123 -3 c67 -2 122 0 122 5 0 4 -58 7 -130 7 -80 0
-130 4 -130 10 0 6 50 10 130 10 l130 0 0 60 c0 55 -2 60 -22 60 -21 1 -22 2
-5 14 11 9 17 27 17 55 l0 41 -60 0 -60 0 0 -43 c0 -24 5 -48 12 -55 10 -10
-4 -12 -65 -10 l-77 3 0 43 0 42 40 0 40 0 0 -41 c0 -24 4 -38 10 -34 6 3 10
26 10 51 l0 44 -50 0 c-27 0 -50 5 -50 10 0 6 50 10 130 10 l130 0 0 65 0 64
-36 7 c-19 3 -51 4 -71 1 -20 -4 -63 -4 -95 0 l-58 6 0 38 c0 39 0 39 40 39
l40 0 0 -42 c0 -30 3 -39 11 -31 6 6 9 28 7 49 -3 39 -3 39 -50 42 -27 2 -48
7 -48 13 0 5 55 9 130 9 l130 0 0 60 c0 55 -2 60 -22 60 -21 1 -22 2 -5 14 11
9 17 27 17 55 l0 41 -54 0 c-30 0 -61 3 -70 6 -11 4 -16 1 -16 -10 0 -9 5 -16
10 -16 6 0 10 -7 10 -15 0 -8 -6 -15 -12 -15 -8 0 -9 -3 -3 -8 15 -11 36 -52
27 -52 -4 0 -13 5 -20 12 -9 9 -12 9 -12 -2 0 -7 -3 -10 -7 -7 -4 4 -6 31 -4
61 l2 53 -50 -5 c-36 -3 -51 -1 -51 8 0 8 22 11 78 10 150 -4 182 -1 182 15 0
8 4 15 9 15 6 0 9 -135 8 -340 -1 -187 1 -340 6 -340 8 0 8 8 8 413 l0 267 54
0 54 0 0 -277 c0 -374 0 -377 7 -371 3 3 5 150 5 327 0 273 2 321 15 321 10 0
14 -12 14 -45 l0 -45 150 0 150 0 0 60 c0 33 4 60 10 60 6 0 10 -15 10 -32z
m-1983 -278 c1 -140 2 -277 3 -304 0 -27 3 -47 6 -44 3 3 6 140 7 304 l2 299
65 -5 c36 -2 84 -4 108 -3 23 0 42 -3 42 -8 0 -5 -7 -9 -16 -9 -13 0 -15 -9
-12 -50 3 -43 0 -50 -15 -50 -12 0 -16 4 -11 12 5 7 9 29 9 50 l2 38 -65 0
-64 0 4 -50 c2 -35 -1 -50 -9 -50 -9 0 -13 -20 -13 -65 l0 -65 130 0 c75 0
130 -4 130 -9 0 -6 -21 -11 -47 -13 -48 -3 -48 -3 -51 -42 -2 -21 1 -43 7 -49
8 -8 11 1 11 31 l0 42 40 0 c40 0 40 0 40 -39 l0 -38 -55 -6 c-30 -3 -80 -3
-110 0 l-55 6 0 38 c0 39 0 39 40 39 l40 0 0 -42 c0 -30 3 -39 11 -31 6 6 9
28 7 49 l-3 39 -55 0 -55 0 0 -52 c1 -37 -3 -53 -12 -53 -9 0 -13 -19 -13 -65
l0 -65 130 0 c80 0 130 -4 130 -10 0 -5 -22 -10 -50 -10 l-50 0 0 -41 c0 -28
6 -47 18 -56 15 -13 9 -14 -49 -9 -36 4 -80 3 -97 0 -32 -6 -32 -7 -32 -65 l0
-59 130 0 c79 0 130 -4 130 -10 0 -5 -17 -21 -38 -35 -36 -24 -47 -26 -146
-24 l-108 1 4 39 c2 21 0 39 -4 39 -5 0 -8 -18 -8 -40 l0 -40 -54 0 -55 0 0
80 c0 44 -3 85 -6 90 -3 6 -1 10 5 10 8 0 8 6 0 20 -6 11 -8 25 -5 30 3 6 6
145 6 310 l0 301 52 -3 52 -3 2 -255z m-117 107 l0 -82 -97 -1 c-79 -1 -94 1
-80 11 11 8 17 26 17 54 l0 41 -65 0 -65 0 0 -41 c0 -28 6 -46 18 -55 16 -12
15 -13 -5 -14 -22 0 -23 3 -23 85 l0 85 150 0 150 0 0 -83z m1120 -32 l0 -55
-70 0 -70 0 0 55 0 55 70 0 70 0 0 -55z m-340 -180 l0 -55 -140 0 -140 0 0 55
0 55 140 0 140 0 0 -55z m-780 -78 l0 -82 -97 -1 c-79 -1 -94 1 -80 11 11 8
17 26 17 54 l0 41 -65 0 -65 0 0 -41 c0 -28 6 -46 18 -55 16 -12 15 -13 -5
-14 -22 0 -23 3 -23 85 l0 85 150 0 150 0 0 -83z m1120 18 l0 -55 -70 0 -70 0
0 55 0 55 70 0 70 0 0 -55z m-810 -30 l0 -55 -70 0 -70 0 0 55 0 55 70 0 70 0
0 -55z m660 5 l0 -40 150 0 150 0 0 -40 0 -40 -160 1 -159 0 0 80 c0 43 4 79
10 79 5 0 9 -18 9 -40z m-980 -145 l0 -55 -70 0 -70 0 0 55 0 55 70 0 70 0 0
-55z m820 -10 l0 -25 -160 0 -160 0 0 25 0 25 160 0 160 0 0 -25z m460 0 l0
-25 -105 0 -105 0 0 -25 c0 -16 -6 -25 -15 -25 -9 0 -15 6 -13 13 2 7 -1 12
-7 12 -5 0 -9 -6 -7 -12 2 -7 -4 -13 -13 -13 -19 0 -19 17 0 36 8 9 15 20 15
25 0 5 -7 9 -15 9 -8 0 -15 4 -15 10 0 15 -28 0 -33 -18 -3 -10 -5 -5 -6 10
l-1 27 160 0 160 1 0 -25z m-1276 -136 c4 -44 4 -84 1 -90 -4 -5 -35 -9 -71
-9 -57 0 -64 2 -64 20 0 11 -4 20 -10 20 -5 0 -10 -9 -10 -20 0 -17 -7 -20
-45 -20 -38 0 -45 3 -45 20 0 11 -4 20 -10 20 -5 0 -10 -9 -10 -21 0 -27 -24
-20 -28 9 -2 14 -12 22 -30 26 -15 2 16 3 68 2 52 -2 82 0 65 3 -18 3 15 8 80
11 l110 6 -142 2 -143 2 0 43 c0 24 3 47 7 50 3 4 66 7 138 7 l132 0 7 -81z
m2639 -36 c4 -58 7 -127 7 -153 l0 -47 -67 -6 c-38 -4 -93 -7 -124 -7 -30 0
-59 -4 -65 -8 -5 -4 -42 -6 -81 -4 l-73 4 -2 66 -2 67 -7 -65 c-4 -37 -5 -1
-2 85 2 82 6 152 9 154 5 5 206 17 325 19 l76 2 6 -107z m-1816 -23 c3 -11 12
-20 19 -20 8 0 14 9 14 20 0 18 7 20 54 20 33 0 66 -7 85 -17 31 -18 31 -19
31 -100 l0 -83 -85 0 -85 0 0 75 c0 60 -3 75 -15 75 -14 0 -21 -56 -15 -127 1
-23 0 -23 -129 -23 l-131 0 0 100 0 100 126 0 c117 0 126 -1 131 -20z m383
-80 l0 -100 -85 0 -85 0 0 80 c0 72 2 80 19 80 10 0 21 9 24 20 4 17 14 20 66
20 l61 0 0 -100z m-1529 80 c18 0 18 -15 19 -419 0 -441 1 -431 -41 -431 -5 0
-9 121 -9 290 0 187 -4 290 -10 290 -6 0 -10 54 -10 141 0 125 2 140 16 135 9
-3 24 -6 35 -6z m59 -64 c0 -17 22 -26 65 -26 43 0 65 9 65 26 0 11 16 14 65
14 59 0 67 -2 75 -22 l9 -23 0 23 c1 20 6 22 56 22 53 0 55 -1 56 -27 l2 -28
4 26 4 27 101 1 c92 2 100 0 94 -16 -6 -17 -5 -17 8 0 18 23 24 21 19 -7 -4
-21 -1 -24 21 -23 21 2 25 6 21 25 -2 14 1 22 11 22 17 0 19 -20 2 -21 -10 0
-10 -2 0 -6 6 -2 12 -20 12 -39 l0 -34 -54 0 c-49 0 -55 2 -59 23 -4 19 -4 18
-6 -5 l-1 -28 -85 0 c-81 0 -85 1 -86 23 l-2 22 -4 -22 c-4 -21 -10 -23 -59
-23 -36 0 -54 4 -54 13 0 9 -2 9 -8 0 -6 -9 -49 -12 -155 -12 l-147 1 0 47 c0
26 3 51 7 54 11 12 23 8 23 -7z m267 -119 c-2 -7 -23 -12 -55 -12 -48 1 -52
-1 -52 -22 0 -16 6 -23 20 -23 19 0 20 -7 20 -125 0 -77 4 -125 10 -125 6 0
10 -58 10 -155 l0 -155 -125 0 -125 0 0 280 c0 242 2 280 15 280 12 0 15 -16
15 -80 0 -77 1 -80 23 -79 16 1 18 2 5 6 -16 4 -18 18 -18 104 0 96 -1 100
-20 94 -14 -4 -20 -2 -20 8 0 13 25 15 151 16 115 0 150 -2 146 -12z m803
-337 l0 -310 -50 0 c-43 0 -50 3 -50 20 0 17 7 20 40 20 l40 0 0 280 0 280
-400 0 -400 0 0 -280 0 -280 65 0 c58 0 65 -2 65 -20 0 -18 -7 -20 -75 -20
l-75 0 0 310 0 310 420 0 420 0 0 -310z m1780 293 c0 -5 25 -6 55 -5 l55 4 0
-56 c0 -38 -4 -56 -12 -56 -10 0 -10 -2 0 -8 20 -13 29 -181 11 -193 -9 -5
-10 -9 -2 -9 18 0 29 -130 12 -141 -10 -6 -11 -11 -3 -16 6 -5 14 -45 18 -91
7 -79 6 -84 -16 -104 -14 -13 -17 -19 -7 -15 13 4 18 -3 23 -31 12 -76 9 -89
-25 -96 -17 -3 -91 -5 -163 -4 l-131 2 123 3 c70 2 122 8 122 13 0 6 -9 10
-20 10 -11 0 -20 6 -21 13 0 10 -2 10 -6 0 -3 -9 -33 -13 -99 -13 l-94 0 0 95
0 95 60 0 60 0 0 185 0 185 -62 2 c-40 1 -50 3 -28 5 19 3 42 11 50 18 10 9
43 13 105 13 50 0 90 3 90 7 0 4 -41 7 -92 7 l-92 -1 -3 32 c-3 32 -3 32 -58
32 -55 0 -55 0 -58 -32 l-3 -32 -100 2 c-54 1 -99 -1 -99 -5 0 -5 -18 -8 -40
-8 -39 0 -40 1 -40 35 l0 35 50 0 50 0 0 50 c0 43 3 50 20 50 16 0 20 -7 22
-32 l1 -33 4 33 c4 32 5 32 59 32 30 0 53 4 50 9 -3 4 6 6 19 3 17 -3 25 -11
26 -26 2 -20 2 -20 6 2 4 20 10 22 81 24 l77 2 -70 6 -70 6 83 2 c45 1 82 -1
82 -5z m-2200 -98 l0 -85 195 0 195 0 0 -185 0 -185 -35 0 c-19 0 -35 5 -35
10 0 6 11 10 25 10 l25 0 0 170 0 170 -185 0 -185 0 0 -170 0 -170 50 0 c28 0
50 -4 50 -10 0 -6 -33 -10 -80 -10 -47 0 -80 4 -80 10 0 6 9 10 20 10 19 0 20
7 20 245 l0 245 -175 0 -175 0 0 -245 0 -245 50 0 c28 0 50 -4 50 -10 0 -6
-27 -10 -60 -10 l-60 0 0 270 0 270 195 0 195 0 0 -85z m390 5 l0 -80 -190 0
-190 0 0 80 0 80 190 0 190 0 0 -80z m1060 -9 l0 -89 -87 2 -88 1 -3 53 c-2
37 0 52 8 47 6 -3 8 -11 5 -16 -4 -5 5 -9 19 -9 17 0 26 5 26 16 0 13 3 14 15
4 8 -6 19 -9 24 -6 5 4 12 2 15 -3 4 -5 -11 -24 -31 -41 -21 -18 -29 -28 -18
-22 41 21 94 99 58 85 -11 -4 -14 -3 -9 5 11 18 -22 26 -41 11 -13 -11 -17
-11 -20 -1 -5 14 -33 16 -33 2 0 -5 -4 -10 -10 -10 -5 0 -10 9 -10 20 0 18 7
20 69 20 46 0 71 -4 74 -12 3 -7 6 -3 6 10 1 12 7 22 16 22 12 0 15 -17 15
-89z m98 2 l-3 -88 -42 -3 -43 -3 0 90 0 91 45 0 46 0 -3 -87z m102 -2 l0 -88
-45 -1 -45 -1 0 89 0 90 45 0 45 0 0 -89z m-1680 -186 c0 -228 -1 -235 -20
-235 -13 0 -20 -7 -20 -20 0 -19 7 -20 90 -20 83 0 90 1 90 20 0 17 -7 20 -50
20 l-50 0 0 160 0 160 175 0 175 0 0 -160 0 -160 -25 0 c-23 0 -25 -4 -25 -45
l0 -45 48 0 49 0 2 -65 2 -65 -60 0 c-34 0 -61 -4 -61 -10 0 -12 119 -13 138
-1 10 6 13 29 11 82 -2 60 1 75 13 77 14 3 16 -14 17 -117 l2 -121 -31 0 c-20
0 -30 5 -30 15 0 9 -9 15 -25 15 -16 0 -25 -6 -25 -15 0 -27 -31 -15 -45 18
-11 25 -15 27 -16 12 -1 -11 -1 -23 0 -27 0 -4 -6 -5 -14 -2 -11 5 -14 0 -12
-17 4 -27 22 -35 41 -20 11 9 23 7 52 -6 22 -10 41 -21 42 -25 6 -14 32 -8 32
7 0 8 -7 15 -15 15 -8 0 -15 5 -15 10 0 6 14 10 30 10 l30 0 0 -86 c0 -76 -2
-85 -17 -82 -10 1 -18 -2 -19 -7 0 -6 7 -9 17 -7 17 3 18 -11 18 -227 0 -127
-3 -231 -7 -231 -8 1 -62 87 -62 101 0 5 7 9 16 9 8 0 22 7 30 15 14 13 14 15
0 15 -9 0 -16 5 -16 10 0 6 -7 10 -15 10 -9 0 -15 9 -15 25 0 15 6 25 14 25
12 0 15 23 18 113 2 67 -1 115 -7 119 -15 11 -175 10 -175 -2 0 -5 37 -10 83
-12 45 -2 -164 -4 -465 -5 l-548 -1 0 224 0 224 210 0 210 0 0 45 0 45 -50 0
-50 0 0 235 0 235 165 0 165 0 0 -235z m1180 174 l0 -60 -70 2 c-51 1 -70 6
-70 16 0 7 8 14 18 14 16 1 16 2 0 6 -13 3 -18 15 -18 44 l0 39 70 0 70 0 0
-61z m-680 -210 c0 -243 -1 -260 -17 -257 -17 3 -18 25 -21 261 -2 252 -2 257
18 257 20 0 20 -6 20 -261z m170 1 l0 -260 -80 0 -80 0 0 260 0 260 80 0 80 0
0 -260z m58 3 l-3 -258 -22 -3 -23 -3 0 260 0 261 25 0 25 0 -2 -257z m37 -28
l7 -225 239 0 239 0 0 78 c0 128 12 302 21 296 5 -3 8 -95 8 -204 l-1 -200
-269 0 -269 0 0 240 c0 133 4 240 9 240 5 0 12 -101 16 -225z m1263 143 c21
-18 13 -28 -23 -28 l-35 0 0 -185 0 -185 35 0 35 0 0 -95 0 -95 -100 0 c-133
0 -130 -18 3 -23 83 -2 74 -3 -50 -5 l-153 -2 0 110 0 110 44 0 c54 0 52 -11
48 213 l-3 167 -44 0 c-26 0 -45 5 -45 11 0 6 18 9 45 8 24 -2 48 0 52 4 10
11 176 6 191 -5z m-392 -211 c-1 -142 -4 -191 -13 -195 -9 -2 -13 8 -14 30
l-2 33 -6 -35 c-4 -19 -8 53 -8 161 l-1 197 23 0 23 0 -2 -191z m94 2 l0 -179
-40 0 -40 0 0 179 0 179 40 0 40 1 0 -180z m90 3 l0 -178 -40 -1 -40 -2 0 180
0 179 40 0 40 0 0 -178z m218 -7 l3 -175 -31 0 -30 0 0 175 0 175 28 0 27 0 3
-175z m122 0 l0 -175 -55 0 -55 0 0 175 0 175 55 0 55 0 0 -175z m-920 -35 l0
-110 -230 0 -230 0 0 110 0 110 230 0 230 0 0 -110z m80 48 c0 -29 23 -68 41
-68 19 0 39 34 39 66 0 24 5 34 15 34 10 0 15 -10 15 -30 0 -23 4 -30 20 -30
18 0 20 -7 20 -55 l0 -55 -90 0 -90 0 0 85 c0 69 3 85 15 85 10 0 15 -10 15
-32z m80 -193 c0 -8 -4 -15 -10 -15 -5 0 -10 -11 -10 -25 0 -14 5 -25 12 -25
9 0 9 -3 0 -12 -14 -14 -16 -42 -2 -33 6 3 10 1 10 -5 0 -7 5 -10 12 -8 13 5
19 48 6 48 -4 0 -8 5 -8 10 0 6 7 10 15 10 8 0 15 5 15 10 0 6 -7 13 -15 16
-8 4 -15 15 -15 26 0 16 6 19 33 16 28 -3 32 -7 35 -35 2 -18 -2 -42 -8 -54
-8 -15 -9 -19 -1 -15 8 5 11 -337 11 -1244 l0 -1252 -35 31 c-20 17 -41 31
-48 30 -7 0 -2 -5 10 -11 l22 -11 -22 -17 c-21 -17 -21 -19 -4 -37 29 -33 22
-53 -18 -53 l-35 0 0 64 c0 53 3 65 18 69 13 4 11 5 -5 6 -22 1 -23 -3 -23
-69 0 -40 -4 -70 -10 -70 -7 0 -10 420 -10 1240 l1 1240 22 0 c13 0 17 3 11 8
-7 4 -13 44 -15 95 l-4 87 33 0 c22 0 32 -5 32 -15z m-730 -205 l1 -210 -81 0
-81 0 1 210 1 210 79 0 79 0 1 -210z m55 180 c4 -16 5 -46 3 -66 l-3 -36 108
1 c59 0 177 0 262 1 l155 0 0 55 c0 30 5 55 10 55 6 0 10 -35 10 -84 0 -79 -1
-85 -20 -83 -11 1 -20 5 -20 9 0 5 -9 4 -19 -2 -11 -6 -88 -10 -179 -10 -129
0 -161 3 -165 14 -5 12 24 14 189 13 124 -1 194 2 194 8 0 6 -90 10 -250 10
-167 0 -250 -3 -250 -10 0 -6 22 -11 52 -10 32 0 53 -5 55 -12 4 -10 -13 -12
-66 -9 -47 2 -71 -1 -71 -8 0 -8 79 -10 275 -9 l275 3 0 -24 c0 -15 -7 -26
-17 -29 -10 -3 -4 -5 14 -6 l32 -1 4 118 c2 109 3 106 5 -40 l2 -158 -35 0
c-19 0 -35 5 -35 10 0 6 -9 10 -20 10 -11 0 -20 -4 -20 -10 0 -5 -11 -10 -25
-10 -30 0 -31 6 -7 35 9 11 4 8 -11 -8 -21 -22 -31 -26 -41 -18 -18 15 -46 3
-46 -20 0 -18 10 -23 37 -20 6 1 14 -6 16 -16 4 -16 5 -16 6 -1 0 9 -3 20 -9
23 -5 3 -10 11 -10 16 0 6 6 7 12 3 7 -5 27 -7 45 -5 25 2 33 -2 33 -13 0 -10
9 -16 25 -16 16 0 25 6 25 15 0 10 10 15 30 15 l30 0 -2 -152 -2 -153 -3 122
-4 122 -310 -6 -310 -5 1 211 c1 198 3 211 20 211 12 0 21 -10 25 -30z m825
-5 c0 -8 7 -15 15 -15 10 0 15 -11 15 -35 0 -31 -3 -35 -27 -36 l-28 -2 28 -4
c23 -4 27 -9 27 -39 0 -24 -5 -34 -15 -34 -12 0 -15 -14 -15 -70 0 -49 -4 -70
-12 -71 -10 0 -10 -2 0 -6 9 -4 12 -108 12 -474 0 -462 0 -469 20 -469 17 0
20 -7 20 -40 0 -22 -4 -40 -10 -40 -5 0 -10 7 -10 15 0 8 -7 15 -15 15 -8 0
-15 -7 -15 -15 0 -8 -4 -15 -10 -15 -5 0 -7 -7 -4 -15 7 -18 50 -20 57 -2 3 6
6 -2 6 -20 1 -23 -4 -33 -19 -38 -19 -6 -20 -15 -20 -326 0 -266 2 -319 14
-319 8 0 17 -7 20 -16 9 -25 7 -64 -4 -64 -6 0 -9 5 -8 11 2 6 -3 14 -9 16 -7
3 -13 -2 -13 -11 0 -9 -7 -16 -16 -16 -14 0 -14 -2 0 -15 8 -8 24 -15 35 -15
12 0 21 -5 21 -10 0 -6 -6 -9 -12 -8 -7 2 -12 -5 -10 -14 2 -10 -2 -18 -8 -18
-6 0 -10 -33 -10 -85 0 -52 4 -85 10 -85 6 0 10 -8 8 -17 -2 -10 2 -17 9 -16
7 2 10 -4 7 -12 -4 -8 -20 -16 -38 -16 -30 -2 -30 -2 -3 -6 15 -2 27 -9 27
-14 0 -5 11 -9 25 -9 21 0 25 -5 25 -30 0 -28 -3 -30 -35 -30 -35 0 -35 0 -35
-45 0 -44 -1 -45 -29 -43 l-30 2 0 1318 -1 1318 30 0 c20 0 30 -5 30 -15z
m399 -295 c-1 -44 -6 -80 -10 -80 -5 0 -9 5 -9 10 0 6 -18 10 -40 10 -22 0
-40 -4 -40 -10 0 -14 -47 -12 -54 3 -5 10 -7 10 -12 0 -3 -7 -14 -13 -25 -13
-17 0 -19 8 -19 80 l0 80 106 0 105 0 -2 -80z m261 36 c0 -30 -5 -46 -15 -50
-9 -3 -15 -18 -15 -35 l0 -30 -108 0 -108 -1 -2 80 -1 80 125 0 124 0 0 -44z
m170 -34 l0 -78 -39 -2 c-38 -3 -40 -1 -43 30 -3 30 -6 33 -40 36 -38 3 -38 4
-38 48 l0 44 80 0 80 0 0 -78z m-650 -167 l0 -75 -60 0 -60 0 0 65 c0 74 9 84
78 85 l42 0 0 -75z m120 0 l0 -74 -55 0 -55 1 0 73 0 72 55 1 55 0 0 -73z
m100 -129 l-1 -205 -88 1 -87 0 4 29 c6 41 -5 77 -26 82 -9 3 27 5 81 6 l97 1
0 145 c0 90 4 145 10 145 6 0 10 -74 10 -204z m241 183 c19 -19 18 -19 -41
-19 l-60 0 0 -135 0 -135 63 0 c47 -1 58 -3 45 -11 -24 -13 -26 -99 -3 -99 11
0 15 -12 15 -45 l0 -45 -96 0 -95 0 2 53 3 52 -31 -3 -30 -3 -2 205 -2 206
106 -1 c91 0 109 -3 126 -20z m182 0 c14 -16 18 -37 18 -92 -1 -40 2 -105 5
-144 8 -90 1 -119 -29 -127 -12 -3 -36 -20 -52 -38 l-30 -33 30 27 c17 15 42
31 58 37 l27 11 0 -65 0 -65 -60 0 c-41 0 -60 4 -61 13 0 10 -2 10 -6 0 -2 -7
-16 -13 -29 -13 -22 0 -24 4 -24 45 l0 45 40 0 40 0 0 45 c0 47 4 44 -65 58
-11 3 15 5 58 6 l77 1 0 135 0 135 -77 1 c-66 1 -72 2 -38 9 21 4 41 13 43 19
6 19 56 12 75 -10z m-1703 -429 l0 -440 -25 0 c-24 0 -25 3 -25 60 0 47 -3 60
-15 60 -8 0 -15 5 -15 10 0 17 -28 11 -33 -7 -3 -10 -5 -2 -6 17 0 24 2 30 8
21 5 -7 14 -10 20 -7 21 13 11 26 -19 26 l-30 0 0 -60 c0 -33 4 -60 10 -60 6
0 10 10 11 23 l0 22 9 -22 c5 -13 12 -23 15 -23 3 0 9 10 14 23 7 17 9 11 12
-31 4 -55 -8 -74 -13 -20 -3 30 -4 31 -20 14 -10 -10 -18 -13 -18 -7 0 6 -4
11 -10 11 -6 0 -10 -30 -10 -71 0 -38 -4 -68 -9 -65 -5 3 -9 80 -10 170 0 152
1 165 17 160 16 -5 16 -5 0 6 -13 8 -18 24 -18 61 0 34 4 48 11 43 8 -4 8 -1
1 12 -6 11 -10 122 -11 267 l0 247 79 0 79 0 1 -440z m598 323 l3 -113 -271 0
-270 0 0 -329 0 -328 -25 5 -25 4 0 439 1 438 292 -2 292 -2 3 -112z m-1946
85 c4 -10 67 -14 254 -18 l249 -6 -247 -2 -248 -2 -2 -197 -3 -198 -27 -3 -28
-3 0 220 0 221 24 0 c13 0 26 -6 28 -12z m3038 -68 l0 -60 -70 0 -70 0 0 60 0
60 70 0 70 0 0 -60z m-2439 38 c0 -10 2 -10 6 0 3 8 29 12 80 12 l74 0 -3 -85
c-2 -63 0 -85 10 -85 8 0 12 -19 12 -60 l0 -60 -65 0 -65 0 0 70 0 70 -70 0
-70 0 0 75 0 75 45 0 c29 0 45 -4 46 -12z m372 5 l-163 -3 0 -63 c-1 -34 -1
-227 -1 -429 l-1 -368 -413 0 c-227 0 -420 -3 -429 -6 -14 -5 -16 5 -16 70 0
73 1 76 24 76 29 0 36 -16 36 -78 l0 -47 390 3 390 2 0 425 0 425 173 -2 172
-2 -162 -3z m-683 -78 l0 -65 -70 0 -70 0 0 -70 0 -70 -65 0 -65 0 0 135 0
135 135 0 135 0 0 -65z m2750 -95 l0 -60 -70 0 -70 0 0 60 0 60 70 0 70 0 0
-60z m-2750 -45 l0 -65 -65 0 -65 0 0 65 0 65 65 0 65 0 0 -65z m350 0 l0 -65
-65 0 -65 0 0 65 0 65 65 0 65 0 0 -65z m228 8 l12 -28 -5 28 c-5 24 -2 27 20
27 l26 0 -2 -95 -3 -95 -46 0 -47 0 -2 95 c-2 86 0 95 17 95 10 0 23 -12 30
-27z m182 -2 c0 -20 -6 -30 -20 -34 -11 -3 -20 -13 -20 -22 0 -9 9 -19 20 -22
16 -4 20 -14 20 -44 l0 -39 -55 0 -55 0 0 95 0 95 55 0 c54 0 55 -1 55 -29z
m910 -166 c0 -123 -4 -195 -10 -195 -6 0 -10 43 -10 110 l0 110 -260 0 -260 0
0 85 0 85 270 0 270 0 0 -195z m-1557 50 c-1 -5 9 -10 22 -10 13 0 23 4 22 9
-1 6 6 12 16 14 15 3 17 -7 17 -108 0 -101 -2 -111 -17 -108 -10 2 -17 10 -16
16 2 7 -3 12 -10 12 -8 0 -7 4 3 10 12 7 8 10 -15 10 -23 0 -27 -3 -15 -10 13
-9 13 -10 0 -10 -12 -1 -12 -3 2 -14 15 -11 13 -13 -18 -14 -19 -1 -32 3 -29
8 3 5 1 11 -5 15 -7 4 -7 13 0 26 13 24 5 39 -21 39 -20 0 -26 -24 -9 -35 8
-5 7 -11 0 -20 -7 -8 -9 -19 -5 -25 3 -5 1 -10 -4 -10 -7 0 -11 38 -11 108 l0
107 48 0 c26 0 46 -4 45 -10z m1527 -134 c0 -116 4 -131 36 -131 21 0 24 -5
24 -35 0 -24 -5 -35 -15 -35 -8 0 -15 5 -15 10 0 6 -7 10 -15 10 -8 0 -15 -4
-15 -10 0 -5 -7 -10 -16 -10 -14 0 -14 -2 0 -15 16 -17 56 -20 56 -5 0 6 5 10
10 10 6 0 10 -15 10 -33 l0 -34 -142 -6 c-79 -4 -187 -7 -240 -7 l-98 0 0 195
0 195 210 0 210 0 0 -99z m-750 -37 c0 -56 -2 -63 -17 -58 -17 5 -17 5 0 -6
17 -11 24 -69 11 -83 -10 -10 -11 -90 -1 -104 4 -6 4 -14 -1 -17 -5 -3 -6 -25
-3 -48 4 -24 8 -150 10 -280 3 -213 1 -238 -13 -238 -14 0 -16 20 -16 153 0
317 -12 607 -26 607 -8 0 -12 12 -12 30 1 19 6 30 15 30 8 0 21 7 29 15 14 13
14 15 0 15 -9 0 -16 7 -16 15 0 8 -6 12 -14 9 -9 -4 -16 3 -19 18 -3 17 -5 15
-6 -9 -1 -44 -21 -43 -21 1 0 29 4 34 33 43 48 15 67 -11 67 -93z m-1030 76
c0 -18 -7 -20 -67 -22 l-68 -2 68 -3 c59 -3 67 -6 67 -23 0 -18 -8 -20 -67
-22 l-68 -2 68 -3 c64 -4 67 -5 67 -28 0 -24 -3 -25 -67 -27 l-68 -2 68 -3 67
-4 0 -69 0 -70 70 0 70 0 0 -65 0 -65 -134 0 -133 0 -6 83 c-4 45 -7 142 -7
215 l0 132 70 0 c63 0 70 -2 70 -20z m880 3 c1 -17 1 -17 11 0 15 26 29 11 28
-31 0 -20 -3 -31 -6 -24 -2 6 -16 12 -29 12 -19 0 -23 -4 -21 -22 4 -26 22
-34 42 -18 12 10 14 -1 14 -69 l0 -81 -64 0 -65 0 0 125 0 125 45 0 c36 0 45
-3 45 -17z m420 -193 l0 -150 255 0 255 0 0 -720 c0 -473 -3 -720 -10 -720 -7
0 -10 177 -10 510 l0 510 -242 2 -243 3 238 2 237 3 0 190 0 190 -170 0 -170
0 0 -185 c0 -117 -4 -185 -10 -185 -6 0 -10 68 -10 185 l0 185 -60 0 c-33 0
-60 -4 -60 -10 0 -5 -7 -10 -15 -10 -13 0 -15 26 -15 175 0 149 2 175 15 175
13 0 15 -23 15 -150z m1070 70 l0 -60 -120 0 -120 0 0 60 0 60 120 0 120 0 0
-60z m200 0 l0 -60 -95 0 -95 0 0 60 0 60 95 0 95 0 0 -60z m350 0 l0 -60
-130 0 -130 0 0 60 0 60 130 0 130 0 0 -60z m-2780 -85 l0 -65 -65 0 -65 0 0
65 0 65 65 0 65 0 0 -65z m350 0 l0 -65 -65 0 -65 0 0 65 0 65 65 0 65 0 0
-65z m140 -70 l0 -135 -135 0 -135 0 0 65 0 65 70 0 70 0 0 70 0 70 65 0 65 0
0 -135z m1554 -20 c4 -11 20 -15 56 -15 36 0 52 4 56 15 5 12 24 15 84 15 60
0 79 -3 84 -15 4 -11 20 -15 56 -15 l50 0 0 -150 0 -150 -220 0 c-140 0 -220
4 -220 10 0 6 6 10 13 11 10 0 10 2 0 6 -7 2 -13 11 -13 19 0 11 16 14 70 14
70 0 70 0 69 28 -1 16 -3 20 -6 10 -4 -15 -16 -18 -69 -18 l-64 0 0 30 c0 30
21 42 35 20 3 -5 12 -10 18 -10 7 0 6 4 -3 11 -12 9 -11 10 8 6 16 -4 22 -1
22 13 0 24 -26 33 -44 15 -24 -24 -36 -17 -36 20 0 27 4 35 18 35 16 1 16 1 0
11 -13 7 -18 23 -18 54 0 41 2 45 24 45 13 0 26 -7 30 -15z m550 0 c8 -21 102
-21 114 1 6 11 21 14 58 12 l49 -3 1 -60 c1 -33 5 -99 9 -146 10 -118 11 -118
-197 -118 l-158 -1 0 165 0 165 59 0 c43 0 60 -4 65 -15z m-894 -753 c0 -460
-4 -702 -10 -692 -14 21 -14 1413 0 1405 7 -4 10 -252 10 -713z m-430 488 l0
-180 -50 0 c-43 0 -50 3 -50 20 0 17 -7 20 -50 20 l-50 0 0 65 c0 64 0 64 33
75 l32 10 -32 -3 -33 -4 0 67 0 67 50 7 c34 5 50 11 50 21 0 11 13 15 50 15
l50 0 0 -180z m360 0 l0 -180 -160 0 -160 0 0 180 0 180 160 0 160 0 0 -180z
m-570 79 c0 -45 -3 -58 -12 -53 -9 5 -8 2 1 -9 12 -15 12 -19 -5 -32 -24 -18
-35 -19 -33 -2 4 36 -2 56 -18 55 -10 -1 -30 2 -45 5 l-28 7 0 -65 c0 -71 19
-92 21 -22 2 42 2 42 8 8 9 -54 29 -50 34 6 l4 48 -1 -50 c-1 -47 -3 -50 -33
-59 -18 -5 -33 -15 -33 -22 0 -17 20 -18 21 -1 1 6 4 1 8 -13 6 -22 13 -25 59
-28 l52 -3 0 -100 0 -99 -80 0 -80 0 0 205 c0 198 1 205 20 205 12 0 20 7 21
18 1 11 3 9 8 -7 6 -23 7 -23 24 -7 12 13 17 14 17 4 0 -7 9 -19 19 -25 19
-12 19 -11 9 18 -5 16 -8 38 -5 49 3 13 0 20 -8 20 -8 0 -16 -8 -18 -17 -4
-14 -5 -12 -6 5 -1 19 4 22 39 22 l40 0 0 -61z m-820 -119 l0 -151 -130 2
-130 1 0 59 c0 52 2 59 20 59 19 0 20 7 20 90 l0 90 110 0 110 0 0 -150z m429
0 l0 -150 -130 0 -129 0 0 150 0 150 130 0 129 0 0 -150z m-269 5 l0 -135 -75
0 -75 0 0 135 0 135 75 0 75 0 0 -135z m-530 30 l0 -55 -70 0 -70 0 0 55 0 55
70 0 70 0 0 -55z m2861 -81 c-12 -15 -21 -32 -21 -38 1 -6 7 1 16 16 17 32 43
48 78 48 25 0 26 -3 26 -54 l0 -53 -56 -7 c-31 -4 -59 -5 -61 -3 -2 3 -6 27
-10 55 l-6 51 -116 4 -116 3 143 2 143 2 -20 -26z m-3010 4 c0 -10 2 -10 6 0
3 8 36 12 114 12 l109 0 0 -60 0 -60 -102 0 -102 0 27 28 c15 15 27 32 27 36
0 4 -12 -6 -26 -23 -31 -37 -41 -39 -47 -8 -4 19 -4 18 -6 -5 0 -18 -7 -28
-16 -28 -12 0 -15 13 -15 60 0 47 3 60 15 60 8 0 15 -6 16 -12z m2709 -13 c0
-9 -10 -16 -27 -16 l-28 -2 28 -4 c22 -4 27 -9 27 -34 l0 -29 -189 0 c-104 0
-203 3 -220 6 -29 6 -31 9 -31 49 l0 42 220 2 c193 2 220 0 220 -14z m260 -31
l0 -41 -46 -7 c-26 -3 -75 -6 -109 -6 l-63 0 0 35 c0 25 5 35 17 36 14 1 14 2
-1 6 -10 2 -18 8 -18 13 0 5 50 8 110 8 l110 -2 0 -42z m-1530 -79 l0 -35 60
0 c47 0 60 3 60 15 0 12 13 15 55 15 42 0 55 -3 55 -15 0 -12 15 -15 75 -15
60 0 75 3 75 15 0 11 12 15 50 15 l50 0 0 -35 c0 -24 -5 -35 -15 -35 -8 0 -15
7 -15 15 0 11 -12 15 -50 15 -38 0 -50 -4 -50 -15 0 -8 -9 -15 -20 -15 -19 0
-20 -7 -20 -140 l0 -140 -32 1 c-24 1 -27 3 -10 6 22 4 22 7 22 139 0 112 -2
134 -15 134 -8 0 -15 7 -15 15 0 11 -12 15 -50 15 -41 0 -50 -3 -51 -17 -1
-17 -2 -17 -6 0 -6 23 -103 25 -103 2 0 -9 -9 -15 -25 -15 l-25 0 0 -134 0
-135 43 -4 42 -4 -47 -1 -48 -2 0 -115 c0 -70 -4 -115 -10 -115 -6 0 -10 110
-10 310 0 269 2 310 15 310 10 0 15 -11 15 -35z m1682 -62 l4 -61 -60 -1 -61
0 3 49 4 50 -62 0 -62 0 4 -50 3 -50 -32 0 -33 0 0 65 0 64 143 3 c78 2 143 1
144 -2 1 -3 3 -33 5 -67z m-3121 55 c0 -10 2 -10 6 0 3 8 36 12 114 12 l109 0
0 -65 0 -65 -130 1 -130 2 0 63 c0 50 3 64 15 64 8 0 15 -6 16 -12z m948 -53
l2 -64 -345 -1 -346 0 0 64 0 65 343 0 344 1 2 -65z m1651 0 l0 -66 -47 1
c-27 1 -81 4 -120 7 l-73 5 0 39 c0 39 0 39 40 39 l40 0 0 -40 c0 -22 5 -40
10 -40 6 0 10 20 10 45 l0 45 -61 0 -61 0 4 -50 3 -50 -40 0 c-30 0 -36 3 -25
10 10 6 11 10 3 10 -9 0 -13 18 -13 55 l0 55 165 0 165 0 0 -65z m220 0 l0
-65 -105 1 -105 2 0 63 0 64 105 0 105 0 0 -65z m-1100 -150 c0 -118 -1 -125
-20 -125 -11 0 -20 -7 -20 -15 0 -11 11 -15 39 -15 33 0 40 -4 43 -22 2 -13 2
50 0 140 l-5 162 82 0 81 0 0 -82 c0 -46 -3 -140 -7 -210 -6 -118 -7 -127 -27
-131 -16 -3 -15 -5 7 -6 l27 -1 0 -245 0 -245 -240 0 -240 0 0 155 0 155 130
0 c123 0 130 1 130 20 0 19 -7 20 -95 20 l-95 0 2 148 c1 84 3 114 5 70 4 -78
4 -78 31 -77 17 1 20 3 10 6 -15 4 -18 16 -18 73 0 92 -4 100 -51 100 l-39 0
0 125 0 125 135 0 135 0 0 -125z m-773 60 c0 -8 -5 -15 -11 -15 -6 0 -4 -5 4
-10 12 -8 12 -10 1 -10 -10 0 -11 -3 -3 -13 7 -8 11 -84 11 -200 l0 -187 -24
0 c-14 0 -25 6 -26 13 0 10 -2 10 -6 0 -2 -7 -13 -13 -24 -13 -18 0 -19 9 -16
220 1 142 -2 220 -8 220 -6 0 -9 -75 -8 -210 2 -180 1 -210 -12 -210 -8 0 -15
-4 -15 -10 0 -6 -6 -9 -12 -8 -7 2 -12 -3 -10 -9 1 -8 -8 -13 -23 -13 -22 0
-25 4 -25 35 0 19 5 35 10 35 6 0 10 -7 10 -15 0 -8 9 -15 20 -15 11 0 20 6
20 14 0 8 8 17 18 19 13 4 11 5 -5 6 -13 0 -23 6 -23 11 0 6 -11 8 -25 4 -23
-6 -25 -3 -25 25 0 28 3 31 30 31 l30 0 0 160 0 160 73 0 c59 0 74 -3 74 -15z
m1650 -192 l3 -202 -78 1 c-42 0 -69 3 -59 5 20 5 22 14 5 31 -7 7 -8 12 -2
12 5 0 2 5 -6 11 -11 8 -9 9 10 3 l25 -6 -22 19 c-13 11 -23 30 -23 43 0 20 4
22 40 18 l40 -4 0 139 0 138 33 -3 32 -3 2 -202z m53 72 l0 -135 85 0 85 0 0
-70 0 -71 -105 2 -104 1 -1 197 c0 109 3 201 7 204 3 4 12 7 20 7 10 0 13 -29
13 -135z m-210 65 l0 -60 -85 0 -85 0 0 60 0 60 85 0 85 0 0 -60z m630 0 l0
-60 -120 0 -120 0 0 60 0 60 120 0 120 0 0 -60z m-2282 -12 l-2 -63 -3 53 c-4
46 -7 52 -26 52 -12 1 -185 1 -384 0 -223 0 -363 3 -363 9 0 6 151 10 390 10
l390 1 -2 -62z m381 -413 c1 -415 -1 -475 -14 -475 -13 0 -15 49 -15 375 l0
375 -25 6 c-31 8 -35 44 -4 44 11 0 27 7 35 15 14 13 14 15 0 15 -9 0 -16 5
-16 10 0 14 -27 12 -33 -2 -3 -7 -6 4 -6 25 -1 33 2 37 24 37 20 0 25 5 25 25
0 15 6 25 14 25 13 0 15 -70 15 -475z m171 0 l-1 -475 -79 0 -80 0 1 475 0
475 80 0 79 0 0 -475z m57 115 c2 -195 3 -390 3 -432 0 -71 2 -78 20 -78 11 0
20 -3 20 -7 0 -5 57 -8 127 -8 l128 0 3 -33 3 -33 -175 1 -175 2 -1 474 0 475
22 -3 23 -3 2 -355z m-1336 318 c0 -10 2 -10 6 0 3 8 33 12 99 12 l94 0 0 -45
0 -45 -120 0 -120 0 0 45 c0 38 3 45 20 45 11 0 20 -6 21 -12z m379 -33 l0
-45 -85 0 -85 0 0 45 0 45 85 0 85 0 0 -45z m290 0 l0 -45 -100 0 -100 0 0 45
0 45 100 0 100 0 0 -45z m2340 -110 l0 -55 -120 0 -120 0 0 54 0 54 120 1 120
2 0 -56z m-3009 18 c1 -15 2 -15 6 -2 3 13 29 15 188 15 150 -1 184 -4 180
-14 -3 -8 -5 -27 -5 -43 0 -28 -2 -29 -44 -29 -44 0 -45 0 -49 38 -4 32 -4 31
-3 -8 l1 -45 53 -3 52 -3 0 -50 0 -49 -235 1 c-223 1 -235 2 -235 20 0 21 30
27 31 7 0 -10 2 -10 6 0 2 6 16 12 29 12 13 0 24 -6 25 -12 0 -10 2 -10 6 0 2
6 12 12 21 13 14 0 14 2 2 6 -8 3 -18 11 -22 17 -5 8 -8 7 -8 -1 0 -7 -11 -13
-25 -13 -23 0 -25 4 -27 48 l-2 47 -3 -47 c-3 -34 -8 -48 -19 -48 -11 0 -14
14 -14 60 0 47 3 60 15 60 8 0 15 -5 15 -11 0 -5 4 -8 8 -5 17 10 52 -25 52
-52 0 -19 3 -23 9 -13 13 21 2 46 -30 65 -40 24 -39 56 3 56 10 0 19 -8 19
-17z m534 -36 l0 -52 55 0 55 0 3 39 c2 21 -1 43 -7 49 -8 8 -11 -1 -11 -31
l0 -42 -45 0 c-45 0 -45 0 -45 35 0 39 2 41 78 50 l52 6 -1 -105 -2 -104 -34
1 -34 2 26 23 c14 12 22 22 17 22 -5 0 -19 -11 -32 -25 -21 -23 -32 -26 -82
-24 -52 2 -58 5 -67 28 l-9 26 -1 -27 c-1 -21 -6 -28 -21 -28 -19 0 -20 7 -20
104 l0 104 63 1 63 0 -1 -52z m535 -167 l0 -120 -53 0 -52 0 -3 120 -3 120 55
0 56 0 0 -120z m1310 51 l0 -69 -85 -1 c-79 -1 -85 0 -85 19 0 22 19 27 37 9
7 -7 19 -9 27 -6 21 8 21 43 0 51 -10 4 -13 2 -8 -6 5 -8 2 -9 -9 -5 -10 3
-17 2 -17 -3 0 -6 -7 -10 -15 -10 -22 0 -20 56 2 64 14 6 15 9 4 15 -8 5 20 9
68 10 l81 1 0 -69z m702 11 c4 -49 2 -60 -16 -76 -17 -15 -17 -18 -3 -13 14 5
17 0 17 -36 0 -23 3 -52 6 -65 6 -23 5 -23 -62 -20 l-69 3 -3 43 -3 42 -90 0
c-74 0 -89 3 -89 16 0 13 14 15 88 13 48 -1 87 2 87 6 0 4 -39 7 -87 6 l-88
-2 0 71 0 70 154 -1 154 0 4 -57z m-3142 -95 c0 -18 -6 -39 -12 -46 -9 -9 -9
-12 -1 -7 6 3 14 0 16 -6 6 -15 10 14 7 60 -1 28 1 32 24 32 20 0 26 -5 27
-22 l2 -23 4 23 c4 21 9 22 89 22 l84 0 0 -50 0 -50 -81 0 c-71 0 -80 -2 -77
-17 2 -11 -7 -25 -22 -35 -14 -10 -19 -18 -12 -18 7 0 12 -15 12 -40 0 -36 -2
-40 -26 -40 -25 0 -26 2 -23 44 3 36 0 47 -16 56 -16 10 -18 10 -7 -1 18 -19
16 -99 -2 -99 -12 0 -15 23 -15 125 1 101 3 125 15 125 9 0 14 -11 14 -33z
m2448 -64 c2 -13 8 -23 13 -23 6 0 8 4 5 9 -5 7 42 31 60 31 2 0 4 -16 4 -35
0 -33 -1 -34 -32 -29 -24 4 -29 3 -19 -4 10 -7 -16 -10 -83 -11 -72 -1 -95 2
-90 11 5 8 0 9 -14 6 -20 -6 -22 -2 -22 33 l0 40 88 -3 c82 -3 87 -4 90 -25z
m-1778 -108 l0 -45 -195 0 -195 0 0 45 0 45 195 0 195 0 0 -45z m210 30 c-16
-20 -8 -38 18 -40 22 -2 25 16 9 43 -6 8 -1 12 17 12 24 0 26 -3 26 -45 l0
-45 -38 0 c-21 0 -44 6 -51 13 -11 10 -13 10 -7 0 5 -10 -11 -13 -68 -13 l-76
0 0 45 0 45 91 0 c79 0 90 -2 79 -15z m2279 -99 c-1 -51 2 -99 5 -105 4 -6 7
-44 6 -84 0 -39 3 -111 6 -159 l6 -88 -33 -17 c-38 -21 -89 -70 -89 -87 0 -6
9 2 19 18 21 32 56 55 84 56 14 0 17 -9 17 -59 l0 -59 -60 -4 c-54 -3 -60 -1
-61 17 0 18 -1 18 -9 -3 -9 -22 -14 -23 -102 -20 l-93 3 -3 93 -3 93 112 -2
111 -1 -1 122 -2 122 45 -4 c27 -2 46 1 46 7 0 6 -19 9 -45 7 -33 -3 -45 -1
-43 9 2 9 -10 12 -42 10 l-45 -2 3 50 4 51 -62 0 -62 0 4 -50 c2 -35 -1 -50
-9 -50 -9 0 -13 23 -13 81 l0 80 150 -3 c95 -2 150 1 150 7 0 6 -55 9 -150 7
l-150 -3 0 30 0 31 156 0 155 0 -2 -94z m-2029 -16 l0 -90 -53 0 -52 0 -3 90
-2 90 55 0 55 0 0 -90z m1380 -52 l0 -89 -103 2 -103 1 -2 69 c-1 64 7 84 24
58 3 -6 15 -9 25 -6 24 6 24 -1 2 -27 -17 -20 -17 -20 0 -7 21 17 46 58 28 47
-7 -4 -11 1 -11 12 0 14 -7 20 -25 20 -14 0 -25 -4 -25 -9 0 -5 5 -9 12 -9 6
0 9 -2 6 -5 -9 -9 -38 6 -38 20 0 10 24 13 105 13 l105 0 0 -90z m130 2 l0
-90 -60 0 -60 0 0 90 0 90 60 0 60 0 0 -90z m200 10 l0 -80 -65 0 c-37 0 -65
-4 -65 -10 0 -5 -13 -10 -30 -10 l-30 0 0 90 0 90 95 0 95 0 0 -80z m-2570
-40 l0 -80 -102 2 c-57 0 -87 3 -68 5 78 8 80 10 80 58 l0 45 -55 0 c-52 0
-55 1 -55 25 l0 25 100 0 100 0 0 -80z m190 53 c0 -27 -1 -28 -50 -25 l-50 4
0 -62 0 -62 50 4 50 3 0 -57 0 -57 68 -4 c37 -2 -4 -4 -90 -5 l-158 -2 0 145
0 145 90 0 90 0 0 -27z m489 -108 l0 -135 -120 0 c-96 0 -119 3 -119 14 0 8
10 16 23 18 19 3 22 9 23 48 1 39 1 40 -3 8 -3 -29 -9 -38 -24 -38 -15 0 -19
7 -19 39 0 35 3 39 31 45 58 11 109 7 109 -9 0 -8 5 -15 10 -15 6 0 10 6 9 13
-1 6 -1 42 0 80 l1 67 40 0 40 0 -1 -135z m-359 -5 l0 -130 -60 0 -60 0 0 130
0 130 60 0 60 0 0 -130z m267 78 l-4 -53 -71 -3 -72 -3 0 56 0 55 75 0 75 0
-3 -52z m1781 -300 l-3 -213 -165 0 -165 0 -3 88 -3 87 111 0 110 0 0 118 c0
65 3 122 7 125 3 4 30 7 60 7 l53 0 -2 -212z m72 92 l0 -120 65 0 66 0 -3 -92
-3 -93 -90 0 -90 0 -3 213 -2 212 30 0 30 0 0 -120z m330 70 l0 -50 -95 0 -95
0 0 50 0 50 95 0 95 0 0 -50z m-2979 18 c0 -10 2 -10 6 0 3 8 32 12 94 12 l89
0 0 -60 0 -60 -90 0 -90 0 -2 33 -1 32 -4 -32 c-4 -27 -9 -33 -29 -33 -23 0
-24 3 -24 60 0 57 1 60 25 60 14 0 25 -6 26 -12z m1909 -28 c-11 -7 -5 -10 23
-10 35 0 37 -1 37 -34 l0 -34 -160 -1 -160 -2 0 36 0 35 75 0 c64 0 75 -2 76
-17 1 -16 2 -16 6 0 4 14 12 18 29 14 13 -2 24 -1 24 4 0 7 21 13 55 17 6 1 3
-3 -5 -8z m900 -62 c0 9 24 12 85 12 l85 0 0 -60 0 -60 -95 0 -95 0 0 63 c0
44 3 58 10 47 6 -10 10 -11 10 -2z m-360 -58 l0 -60 -105 0 -105 0 0 60 0 60
105 0 105 0 0 -60z m-1341 -20 c1 -42 -1 -50 -17 -50 -10 0 -24 6 -30 12 -10
10 -15 10 -22 -2 -7 -12 -12 -12 -34 -1 -21 12 -28 12 -41 1 -9 -7 -14 -18
-12 -23 4 -13 46 -17 53 -5 9 13 24 9 24 -7 0 -8 9 -15 20 -15 11 0 23 7 26
15 4 8 12 15 20 15 11 0 14 -119 14 -739 l0 -739 -85 -1 -85 -2 0 55 c0 54 0
54 43 75 23 12 35 21 26 21 -8 0 -24 -7 -35 -15 -28 -21 -33 -19 -32 15 1 30
2 30 56 30 44 0 53 -3 48 -15 -4 -10 1 -15 14 -15 20 0 20 10 20 630 0 553 -2
630 -15 630 -13 0 -15 -22 -15 -140 l0 -140 -55 0 -56 0 2 155 1 154 26 -15
27 -16 -27 22 c-24 18 -28 29 -28 71 l0 49 54 0 c64 0 86 7 86 26 0 8 6 14 13
14 10 0 14 -16 16 -50z m171 -455 c0 -444 -2 -505 -15 -505 -8 0 -15 -6 -16
-12 0 -10 -2 -10 -6 0 -2 6 -10 12 -16 12 -8 0 -11 -17 -8 -51 3 -48 2 -51
-18 -44 -17 5 -21 2 -22 -17 -2 -40 3 -63 15 -70 7 -5 7 -8 0 -8 -6 0 -11 -22
-13 -50 -1 -27 2 -50 7 -50 16 0 19 21 15 103 -3 76 -3 77 22 77 14 0 25 -4
25 -10 0 -5 -7 -7 -15 -4 -10 4 -15 0 -15 -11 0 -10 6 -15 13 -12 6 2 21 1 32
-4 l20 -8 -20 -1 c-11 -2 -25 -2 -31 -1 -15 2 -23 -39 -13 -65 7 -20 12 -13
22 31 3 11 5 3 6 -17 1 -28 -3 -38 -14 -38 -11 0 -15 -12 -15 -44 0 -24 -3
-52 -7 -62 -5 -14 -2 -16 15 -12 19 5 22 2 21 -25 -1 -24 -3 -26 -6 -9 -8 41
-29 25 -25 -19 3 -23 -1 -46 -8 -52 -9 -9 -10 -2 -7 34 5 41 -5 81 -17 69 -2
-3 -6 -29 -7 -59 -3 -48 0 -55 19 -62 25 -9 56 15 48 37 -3 9 2 14 14 14 18 0
20 -7 20 -60 l0 -60 -31 32 c-17 18 -28 28 -26 23 3 -6 -4 -12 -16 -12 -18 -2
-19 0 -7 8 12 8 12 10 1 7 -16 -5 -23 -46 -9 -54 19 -12 6 -24 -27 -24 l-35 0
0 51 c0 37 5 55 17 64 9 7 18 22 20 34 2 16 -2 21 -19 21 -16 0 -19 -3 -11
-11 6 -6 9 -18 6 -25 -17 -44 -22 12 -23 236 l-1 250 28 1 28 2 -28 4 -27 4 0
480 1 479 79 0 79 0 1 -505z m362 458 l2 -48 3 48 4 47 60 0 c62 0 67 -3 47
-30 -7 -9 -3 -5 9 8 21 21 30 23 113 21 l90 -2 0 -718 c0 -675 -1 -719 -18
-720 -14 -1 -14 -2 -1 -6 14 -3 15 -23 13 -146 -2 -78 -4 -152 -4 -164 0 -13
-5 -23 -11 -23 -5 0 -9 10 -7 22 2 11 -3 23 -9 25 -9 3 -13 -7 -13 -29 0 -29
4 -34 22 -34 l21 1 5 -383 5 -383 -34 3 -34 3 -3 553 -2 552 -25 0 c-21 0 -25
5 -25 30 0 23 4 30 20 30 11 0 20 4 20 9 0 5 8 12 18 14 13 4 11 5 -5 6 -13 0
-22 6 -20 12 1 6 -4 14 -10 16 -7 3 -14 -4 -14 -14 -1 -10 -5 0 -9 22 l-7 40
-2 -38 c-1 -31 -4 -38 -18 -35 -16 3 -18 16 -18 102 0 71 4 101 13 103 9 4 12
-13 12 -62 0 -57 2 -66 16 -61 9 3 24 6 35 6 18 0 19 14 19 545 l0 545 -22 1
c-13 0 -80 0 -150 -1 l-128 -1 0 86 c0 61 -3 85 -12 85 -10 0 -12 -22 -10 -86
l4 -85 -99 1 c-54 1 -108 1 -120 1 l-23 -1 -2 -702 -3 -703 -22 -3 c-21 -3
-23 1 -23 43 0 28 6 52 15 61 16 17 21 79 5 69 -6 -4 -7 6 -4 25 4 19 2 30 -5
30 -15 0 -14 37 1 42 17 6 16 80 -1 86 -10 3 -10 6 -2 12 19 11 23 57 6 73 -8
9 -10 17 -5 19 16 5 18 140 2 146 -9 3 -12 108 -12 492 l1 488 174 2 175 1 2
-48z m447 -1233 l0 -1280 -54 0 -55 0 1 303 c1 166 4 292 6 279 7 -35 39 -25
35 11 -3 21 1 27 15 27 15 0 18 8 17 56 -1 59 -11 74 -51 74 -19 0 -23 5 -22
28 2 23 2 24 6 5 5 -27 18 -29 32 -5 9 15 10 14 11 -6 0 -14 5 -22 12 -20 17
6 17 78 1 78 -7 0 -13 -4 -13 -10 0 -5 -11 -10 -25 -10 -23 0 -25 3 -23 43 l1
42 4 -38 c3 -29 8 -37 21 -35 11 2 16 11 14 26 -2 15 2 22 12 22 13 0 16 12
16 54 0 34 -5 56 -12 59 -8 4 -7 6 3 6 13 1 16 9 14 34 -2 17 -3 40 -4 50 -1
9 -9 17 -18 17 -13 0 -14 -3 -6 -8 20 -12 5 -82 -18 -82 -9 0 -20 -8 -22 -17
-3 -10 -5 0 -5 22 0 22 2 34 5 28 7 -18 33 -16 33 2 0 8 -9 15 -20 15 -15 0
-20 7 -20 25 0 19 4 23 18 18 16 -7 16 -6 -1 11 -16 16 -17 64 -16 737 l1 719
54 0 54 0 -1 -1280z m71 1110 c0 -144 2 -170 15 -170 21 0 19 -39 -2 -47 -45
-17 -49 -53 -7 -53 19 0 24 -5 24 -25 0 -16 -6 -25 -15 -25 -13 0 -15 -64 -15
-515 0 -356 3 -515 11 -515 5 0 8 -4 4 -9 -3 -5 -1 -12 5 -16 15 -9 12 -25 -5
-25 -8 0 -15 -4 -15 -10 0 -5 -8 -10 -17 -11 -11 0 -13 -3 -5 -6 6 -2 12 -11
12 -19 0 -9 7 -14 18 -12 11 2 18 -4 20 -19 2 -16 -2 -23 -12 -23 -12 0 -16
-10 -16 -40 0 -37 3 -41 30 -47 26 -5 30 -10 29 -37 0 -17 -3 -25 -6 -18 -6
14 -33 16 -33 2 0 -5 -12 -11 -27 -11 l-28 -2 28 -4 c20 -3 27 -9 23 -19 -3
-8 0 -14 7 -13 26 3 37 -2 37 -17 0 -9 -7 -14 -17 -12 -42 6 -43 -2 -43 -278
l0 -264 45 0 c39 0 45 -3 45 -21 0 -18 -5 -20 -45 -18 -25 2 -45 -1 -45 -6 0
-5 20 -8 45 -6 l45 3 0 -41 0 -40 -75 0 -74 0 0 1278 -1 1277 30 2 30 2 0
-170z m-2219 143 c1 -17 2 -17 6 0 4 14 15 17 61 16 44 0 52 -2 35 -9 -20 -8
-23 -17 -23 -61 0 -42 3 -52 20 -56 11 -3 20 -11 20 -18 0 -7 -9 -15 -20 -18
-14 -3 -20 -14 -20 -32 l0 -27 -34 29 c-20 16 -35 38 -36 53 -2 21 -3 22 -7 5
-3 -11 -10 -23 -17 -27 -8 -6 -7 -8 2 -8 6 0 12 -8 12 -17 0 -15 2 -16 10 -3
7 12 12 11 31 -5 12 -11 28 -35 36 -52 7 -18 20 -33 28 -33 8 0 15 -5 15 -11
0 -6 -7 -8 -16 -5 -9 3 -33 6 -55 6 -30 0 -39 4 -40 18 -1 16 -2 16 -6 0 -2
-10 -11 -18 -19 -18 -11 0 -14 26 -14 145 0 122 2 145 15 145 8 0 16 -8 16
-17z m309 -53 l0 -70 -55 0 -55 0 0 70 0 70 55 0 55 0 0 -70z m136 48 c-3 -13
-6 -38 -6 -55 0 -32 -2 -33 -40 -33 l-40 0 0 40 0 40 40 0 c22 0 40 5 40 10 0
6 -20 10 -45 10 l-45 0 0 -61 0 -61 50 4 c45 3 50 1 50 -17 0 -18 -5 -20 -50
-17 l-50 4 0 -61 0 -61 45 0 c25 0 45 5 45 10 0 6 -18 10 -40 10 l-40 0 0 40
c0 40 0 40 39 40 l38 0 6 -54 c3 -29 3 -81 0 -115 l-6 -61 -38 0 -39 0 0 45 0
45 40 0 c22 0 40 5 40 10 0 6 -20 10 -45 10 l-45 0 0 -61 0 -61 50 4 c42 2 50
0 50 -14 0 -15 -10 -18 -65 -18 l-65 0 0 225 0 225 66 0 c64 0 66 -1 60 -22z
m124 -48 l0 -70 -55 0 -55 0 0 70 0 70 55 0 55 0 0 -70z m156 -97 c1 -133 -1
-163 -11 -150 -8 11 -27 17 -54 17 l-41 0 0 -60 0 -60 43 0 c24 0 48 5 55 12
9 9 12 6 12 -16 l0 -27 -74 2 -73 3 -2 223 -2 223 73 0 73 0 1 -167z m249 160
c-34 -8 -41 -23 -12 -23 25 0 27 -3 27 -41 0 -29 -3 -38 -12 -33 -10 6 -10 5
-1 -7 7 -9 12 -69 12 -177 l2 -162 -66 0 -65 0 0 225 0 225 68 -1 c37 -1 58
-3 47 -6z m-665 -213 l0 -70 -55 0 -55 0 0 70 0 70 55 0 55 0 0 -70z m260 0
l0 -70 -55 0 -55 0 0 70 0 70 55 0 55 0 0 -70z m860 -125 l0 -165 130 0 c80 0
130 -4 130 -10 0 -6 -50 -10 -130 -10 l-130 0 0 -180 c0 -113 -4 -180 -10
-180 -6 0 -10 125 -10 355 0 230 4 355 10 355 6 0 10 -62 10 -165z m520 -370
c0 -469 -2 -535 -15 -535 -12 0 -15 13 -15 60 l0 60 -240 0 -240 0 0 -250 0
-250 190 0 c162 0 190 -2 190 -15 0 -13 -28 -15 -190 -15 -120 0 -190 -4 -190
-10 0 -5 -7 -10 -15 -10 -13 0 -15 45 -15 345 0 223 4 345 10 345 6 0 10 -25
10 -55 l0 -55 250 0 250 0 0 460 c0 300 3 460 10 460 7 0 10 -185 10 -535z
m-35 123 c1 -426 0 -432 -47 -373 -11 14 -25 25 -32 25 -7 0 -19 -11 -26 -25
-11 -20 -21 -25 -52 -25 l-38 0 0 90 c0 89 0 90 25 90 22 0 25 4 24 38 0 32
-1 34 -9 15 -7 -18 -17 -23 -45 -23 -28 0 -38 5 -45 23 -8 19 -9 17 -9 -15 -1
-27 3 -38 14 -38 13 0 15 -20 15 -120 l0 -120 -91 0 -92 0 5 213 c3 116 2 178
-1 137 l-6 -75 -32 -3 -33 -3 0 120 0 121 130 0 c123 0 130 1 130 20 0 17 -7
20 -39 20 -34 0 -38 3 -34 20 8 30 -15 50 -57 50 -42 0 -65 -20 -57 -50 4 -17
0 -20 -34 -20 l-39 0 0 148 c0 82 3 151 6 155 3 3 110 5 237 4 l232 -2 0 -397z
m1274 121 c-10 -6 -10 -9 -1 -9 6 0 12 -6 12 -14 0 -10 -16 -13 -59 -14 l-59
0 -4 44 c-3 37 0 44 14 44 15 0 18 10 18 64 l0 65 38 3 37 3 9 -89 c7 -72 6
-90 -5 -97z m-689 136 l0 -44 -105 0 c-105 0 -105 0 -105 24 0 24 3 25 54 25
44 0 55 -4 59 -17 4 -14 5 -12 6 5 1 20 -3 22 -59 22 -47 0 -60 3 -60 15 0 12
18 15 105 15 l105 0 0 -45z m289 28 c-13 -15 -12 -15 8 -5 32 17 33 16 33 -33
l0 -44 -35 20 c-19 12 -35 18 -35 15 0 -3 12 -12 28 -20 26 -15 24 -15 -47
-16 -69 0 -73 1 -55 16 18 15 18 15 -3 5 -12 -6 -24 -11 -27 -11 -12 0 -6 79
7 83 6 3 41 6 76 6 58 1 62 0 50 -16z m311 -43 l0 -60 -130 0 -130 0 0 60 0
60 130 0 130 0 0 -60z m-3099 33 c1 -17 2 -17 6 0 3 12 15 17 41 17 l37 0 -3
-56 c-4 -49 -2 -56 17 -61 12 -3 21 -12 21 -19 0 -19 -110 -20 -111 -1 0 10
-2 10 -6 0 -2 -7 -11 -13 -19 -13 -11 0 -14 17 -14 75 0 60 3 75 15 75 8 0 16
-8 16 -17z m2496 -133 l1 -60 -104 0 c-86 0 -104 3 -104 15 0 8 6 15 13 16 10
0 10 2 0 6 -7 2 -13 18 -13 35 0 26 2 29 15 18 18 -15 45 -6 45 15 0 12 14 15
73 15 l74 0 0 -60z m42 53 c-1 -5 -1 -20 0 -35 1 -27 3 -28 56 -28 54 0 55 0
55 30 l0 30 90 0 c53 0 90 -4 90 -10 0 -6 29 -10 68 -10 l67 0 -3 -45 -4 -45
-223 1 -223 1 0 59 c1 43 5 59 14 59 8 0 13 -3 13 -7z m-2419 -132 c0 -60 -2
-69 -20 -74 -14 -3 -20 -14 -20 -31 0 -23 -3 -26 -34 -23 -19 1 -33 4 -31 7 1
3 -1 14 -6 25 -6 13 -8 -2 -7 -45 1 -86 0 -90 -17 -90 -20 0 -22 120 -2 121
10 0 10 2 0 6 -9 3 -13 31 -13 89 l0 84 75 0 75 0 0 -69z m450 59 c0 -6 7 -10
15 -10 8 0 15 4 15 10 0 6 42 10 105 9 l105 0 0 -79 0 -79 -245 0 c-208 0
-245 2 -245 14 0 12 -15 15 -64 15 -70 0 -76 -6 -76 -77 0 -23 -5 -33 -15 -33
-11 0 -15 11 -15 40 0 31 4 40 17 40 15 0 15 1 0 18 -12 13 -17 37 -17 79 l0
61 210 1 c129 0 210 -3 210 -9z m420 -68 l0 -79 -85 -2 -85 -2 0 79 0 80 85 1
85 2 0 -79z m120 -2 l0 -80 -55 0 -55 0 0 80 0 80 55 0 55 0 0 -80z m1390 -35
l0 -55 -105 0 -105 0 0 55 0 55 105 0 105 0 0 -55z m705 8 c5 -33 3 -48 -7
-54 -9 -6 -10 -11 -2 -16 6 -5 14 -46 17 -92 6 -78 5 -85 -15 -102 -17 -16
-18 -19 -5 -19 10 0 17 -5 17 -10 0 -12 -93 -10 -101 2 -9 14 -268 15 -277 1
-5 -8 -63 -12 -200 -12 -177 -1 -192 1 -192 17 0 28 -21 42 -60 42 -40 0 -60
-14 -60 -42 0 -13 -8 -18 -30 -18 -29 0 -30 2 -30 45 l0 45 150 0 150 0 0 75
c0 73 -1 75 -25 75 -24 0 -25 3 -25 54 l0 55 344 0 344 0 7 -46z m-2755 -75
c0 -9 -15 -12 -50 -10 l-50 4 0 -62 0 -62 49 4 49 3 -2 -70 -1 -70 -42 4 -43
3 0 44 0 44 40 0 c22 0 40 5 40 10 0 6 -20 10 -45 10 l-45 0 0 -60 0 -60 -100
0 c-91 0 -101 2 -98 18 2 9 10 22 18 29 13 11 13 12 -2 13 -14 0 -18 9 -18 40
0 31 4 40 18 40 16 1 16 1 0 14 -16 12 -25 36 -14 36 2 0 12 3 22 7 15 6 16 1
10 -50 -4 -30 -4 -71 -1 -91 l7 -36 64 0 64 0 0 130 0 130 65 0 c45 0 65 -4
65 -12z m277 -86 c1 -81 -1 -94 -11 -79 -9 11 -27 17 -55 17 l-41 0 0 -60 c0
-53 -2 -60 -20 -60 -19 0 -20 7 -20 140 l0 140 73 0 72 0 2 -98z m383 -42 l0
-140 -55 0 c-41 0 -55 4 -55 14 0 10 14 16 43 18 l42 3 0 55 0 55 -42 3 -43 3
0 65 0 64 55 0 55 0 0 -140z m-540 60 l0 -70 -55 0 -55 0 0 70 0 70 55 0 55 0
0 -70z m390 -65 l0 -135 -50 0 -50 0 0 135 0 135 50 0 50 0 0 -135z m1321 113
c0 -10 2 -10 6 0 3 8 35 12 109 12 l104 0 0 -60 0 -60 -120 0 -120 0 0 60 c0
33 4 60 10 60 6 0 10 -6 11 -12z m-1971 -148 l0 -70 -55 0 -55 0 0 70 0 70 55
0 55 0 0 -70z m2013 -90 c4 -17 14 -20 57 -20 43 0 53 3 57 20 5 18 14 20 83
20 86 0 90 -3 90 -66 l0 -34 -175 0 -175 0 0 50 c0 48 1 50 29 50 20 0 30 -6
34 -20z m775 -22 c-2 -24 -7 -46 -13 -50 -12 -9 -207 -11 -229 -2 -11 4 -16
19 -16 50 l0 44 130 0 130 0 -2 -42z m-2927 -40 c0 -10 2 -10 6 0 3 9 41 12
139 12 74 0 134 -3 134 -7 0 -5 -22 -6 -50 -5 l-50 4 0 -61 0 -61 45 0 c25 0
45 5 45 10 0 6 -18 10 -40 10 l-40 0 0 40 c0 40 0 40 39 40 l38 0 6 -54 c3
-29 3 -81 0 -115 l-6 -61 -38 0 -39 0 0 45 0 45 40 0 c22 0 40 5 40 10 0 6
-20 10 -45 10 l-45 0 0 -61 0 -61 50 4 c35 2 50 -1 50 -9 0 -9 16 -13 45 -13
25 0 45 -4 45 -9 0 -6 -49 -10 -110 -10 l-110 -1 0 135 0 135 -64 0 c-62 0
-65 -1 -69 -27 -5 -24 -4 -204 1 -255 2 -15 12 -18 67 -18 36 0 65 4 65 10 0
6 44 10 110 9 l110 0 0 -60 0 -59 -117 1 c-65 1 -118 -2 -118 -6 0 -4 53 -7
118 -6 71 0 117 -3 117 -9 0 -6 -20 -10 -45 -10 -29 0 -45 -4 -45 -12 0 -9
-15 -12 -50 -10 l-50 4 -1 -39 c-1 -21 -3 -49 -4 -63 -3 -26 -3 -26 51 -20 50
6 54 4 54 -14 0 -19 -5 -21 -54 -18 l-55 4 3 -29 c2 -15 4 -43 5 -60 1 -32 2
-33 46 -33 25 0 45 5 45 10 0 6 -18 10 -40 10 l-40 0 0 45 0 45 39 0 38 0 6
-61 c3 -34 3 -86 0 -115 l-6 -54 -38 0 c-39 0 -39 0 -39 40 l0 40 40 0 c22 0
40 5 40 10 0 6 -20 10 -45 10 l-45 0 0 -61 0 -61 50 4 c35 2 50 -1 50 -9 0 -9
-20 -13 -66 -13 l-65 0 2 110 c1 61 6 110 11 110 5 0 6 6 1 13 -4 6 -8 41 -9
77 -1 36 -2 82 -3 103 l-1 37 -54 0 c-30 0 -57 4 -60 9 -3 4 -17 6 -31 3 -24
-4 -25 -2 -25 41 l0 46 85 -2 c51 -1 85 2 85 8 0 6 -34 9 -85 8 -76 -2 -85 0
-83 15 2 9 10 22 18 29 13 11 13 12 -2 13 -14 0 -18 9 -18 40 0 31 4 40 18 40
15 1 15 2 -3 16 -17 13 -18 16 -5 25 11 8 12 12 3 16 -8 3 -13 23 -13 48 0 26
5 45 13 48 10 4 10 7 0 18 -15 16 -17 49 -3 49 6 0 10 -6 11 -12z m556 -81 c2
-77 0 -89 -11 -74 -9 11 -27 17 -55 17 l-41 0 0 -60 0 -60 43 0 c24 0 48 5 55
12 9 9 12 7 12 -10 0 -21 3 -22 120 -22 l120 0 0 145 c0 80 3 145 8 145 4 0 8
-69 9 -154 l2 -154 -219 0 c-130 -1 -220 3 -220 9 0 5 7 9 15 9 13 0 15 23 15
145 l0 145 73 0 72 0 2 -93z m123 23 l0 -70 -55 0 -55 0 0 70 0 70 55 0 55 0
0 -70z m110 -70 l0 -140 -50 0 -50 0 0 140 0 140 50 0 50 0 0 -140z m71 123
c1 -17 2 -17 6 0 3 12 15 17 39 17 l34 0 0 -155 0 -155 -55 0 -55 0 0 65 0 65
39 0 c43 0 51 10 51 65 0 55 -8 65 -51 65 -35 0 -39 3 -39 25 0 29 29 36 31 8z
m1358 -157 c1 -121 0 -125 -22 -128 -20 -3 -22 -9 -22 -58 0 -49 2 -55 22 -58
17 -3 21 -10 21 -33 -1 -29 -1 -29 -65 -29 l-63 0 0 208 c0 115 3 212 7 215 3
4 32 7 64 7 l58 0 0 -124z m843 37 c2 -49 -1 -91 -6 -94 -4 -4 -3 -10 4 -14 8
-5 11 -32 9 -81 -2 -40 0 -76 4 -80 4 -4 7 -42 7 -85 l0 -78 -425 0 -425 0 0
39 0 39 415 0 c228 0 415 3 415 6 0 3 -186 6 -413 6 l-414 0 -1 29 c0 18 6 30
16 34 9 3 23 9 30 12 8 4 12 -4 12 -25 l0 -31 120 0 120 0 2 28 c4 73 5 201 1
240 l-5 42 -119 0 -119 0 -2 -32 c0 -18 -1 -57 -2 -86 0 -32 -4 -50 -11 -47
-5 3 -18 8 -27 11 -15 5 -18 22 -17 130 l0 124 414 0 414 0 3 -87z m-3145 -45
c-1 -13 -4 -25 -7 -28 -3 -3 -16 -19 -30 -35 l-25 -30 28 24 27 24 0 -42 c0
-34 4 -44 20 -48 11 -3 20 -14 20 -23 0 -16 -9 -19 -75 -18 l-75 1 0 97 0 97
60 2 c56 1 60 0 57 -21z m2493 -123 l0 -145 -55 0 -55 0 0 46 c0 27 4 43 10
39 6 -3 10 1 10 9 0 9 -4 16 -10 16 -13 0 -8 73 5 82 6 5 4 8 -5 8 -13 0 -13
1 0 10 10 6 11 10 3 10 -8 0 -13 14 -13 35 l0 35 55 0 55 0 0 -145z m-2271 45
l-2 -70 -54 0 -53 0 0 70 0 70 56 0 55 0 -2 -70z m1538 -27 c1 -57 -3 -95 -9
-99 -7 -5 -8 -2 -3 7 8 12 6 12 -8 0 -23 -18 -22 -42 2 -48 18 -4 19 -16 20
-124 l1 -119 -200 0 -200 0 0 240 0 240 198 -2 197 -3 2 -92z m-857 -94 l0
-59 -220 1 -220 1 0 58 0 59 220 -1 220 0 0 -59z m-2 -106 c1 -21 -5 -47 -13
-60 -19 -29 -19 -43 0 -17 13 18 14 16 15 -23 0 -36 -3 -43 -20 -43 -11 0 -20
-4 -20 -10 0 -5 9 -10 20 -10 19 0 20 -7 20 -135 l0 -135 -65 0 -65 0 0 225 0
225 -64 0 -63 0 -7 -40 c-3 -22 -3 -66 0 -97 5 -48 4 -56 -7 -45 -7 6 -32 12
-56 12 l-43 0 0 -60 0 -60 45 0 c25 0 45 5 45 10 0 6 -16 10 -35 10 -35 0 -35
0 -35 45 0 45 0 45 34 45 19 0 38 -5 42 -11 3 -6 8 -67 9 -135 l2 -124 -73 0
-74 0 0 225 c0 193 -2 225 -15 225 -8 0 -15 4 -15 9 0 5 95 9 218 10 l219 0 1
-36z m-868 8 c0 -5 -9 -11 -20 -14 -17 -4 -20 -14 -20 -57 0 -43 3 -53 20 -57
25 -7 26 -29 1 -36 -11 -2 -21 -14 -23 -26 -3 -19 -5 -19 -39 13 -24 23 -40
31 -49 26 -10 -6 -7 -10 12 -15 34 -9 66 -43 78 -83 l9 -32 -60 1 -59 2 0 143
0 144 75 0 c41 0 75 -4 75 -9z m190 -71 l0 -70 -55 0 -55 0 0 70 0 70 55 0 55
0 0 -70z m540 0 l0 -70 -55 0 -55 0 0 70 0 70 55 0 55 0 0 -70z m1100 -780 c0
-547 -3 -830 -10 -830 -7 0 -10 160 -10 460 l0 460 -250 0 -250 0 0 -60 c0
-33 -4 -60 -10 -60 -6 0 -10 78 -10 215 0 184 2 215 15 215 13 0 15 -22 15
-140 l0 -140 240 0 240 0 0 250 0 250 -45 0 c-34 0 -45 4 -45 15 0 9 6 15 13
14 6 -1 27 -1 45 0 l32 1 0 90 c0 73 3 90 15 90 13 0 15 -99 15 -830z m1284
741 c4 -5 0 -12 -6 -14 -8 -3 -6 -6 5 -6 14 -1 17 -11 17 -60 l0 -58 -37 -7
c-21 -3 -49 -6 -63 -5 -25 0 -25 0 -2 9 18 8 22 17 22 49 0 30 6 44 22 55 12
9 17 16 11 16 -7 0 -15 -5 -19 -11 -4 -8 -9 -8 -17 0 -14 14 -84 14 -92 1 -4
-6 10 -10 33 -10 39 0 40 0 40 -40 l1 -40 -42 0 c-41 0 -42 -13 -2 -23 14 -3
11 -5 -10 -6 l-30 -1 -1 80 -1 80 83 0 c46 0 85 -4 88 -9z m-654 -81 l0 -70
-55 0 -55 0 0 70 0 70 55 0 55 0 0 -70z m230 0 l0 -70 -55 0 -55 0 0 70 0 70
55 0 55 0 0 -70z m240 0 l0 -70 -55 0 -55 0 0 70 0 70 55 0 55 0 0 -70z
m-1940 -115 l0 -135 -55 0 -55 0 0 135 0 135 55 0 55 0 0 -135z m2159 -92 l1
-52 -204 0 -204 0 1 81 c1 55 6 83 15 85 9 4 12 -15 12 -71 l0 -76 64 0 65 0
6 48 c10 70 11 72 50 72 35 0 35 0 35 -45 0 -45 0 -45 -35 -45 -19 0 -35 -4
-35 -10 0 -5 20 -10 45 -10 l45 0 0 60 0 60 -43 0 c-24 0 -48 -5 -55 -12 -9
-9 -12 -7 -12 10 0 21 4 21 118 24 l117 3 7 -35 c4 -19 7 -58 7 -87z m-3149
108 c0 -5 -9 -11 -20 -14 -17 -4 -20 -14 -20 -57 0 -43 3 -53 20 -57 44 -12
16 -23 -55 -23 l-75 0 0 74 0 73 62 2 c34 1 64 3 66 6 8 8 22 6 22 -4z m2300
-76 l0 -85 -42 0 -41 0 24 27 24 27 -33 -27 c-45 -36 -62 -35 -62 6 0 17 4 28
8 22 13 -18 52 -13 52 7 0 24 -26 34 -45 18 -13 -11 -15 -8 -15 19 0 31 0 31
54 31 44 0 55 -4 59 -17 3 -11 5 -7 6 10 1 27 0 27 -61 28 -54 1 -58 3 -28 9
19 4 50 8 68 9 l32 1 0 -85z m150 10 l0 -75 64 0 65 0 6 48 c10 70 11 72 50
72 35 0 35 0 35 -45 0 -45 0 -45 -35 -45 -19 0 -35 -4 -35 -10 0 -5 20 -10 45
-10 l45 0 0 60 0 60 -43 0 c-24 0 -48 -5 -55 -12 -9 -9 -12 -7 -12 10 0 22 3
23 73 20 l72 -3 2 -82 1 -82 -208 0 -207 0 -2 75 c-1 41 1 79 4 84 3 6 35 10
71 10 l64 0 0 -75z m-2260 -5 l0 -70 -55 0 -55 0 0 70 0 70 55 0 55 0 0 -70z
m540 0 l0 -70 -55 0 -55 0 0 70 0 70 55 0 55 0 0 -70z m2000 -145 l0 -45 -210
1 -210 0 0 44 0 44 210 0 210 0 0 -44z m406 37 c6 -4 14 -24 17 -44 l6 -37
-210 0 -209 0 0 44 0 43 193 1 c105 0 197 -2 203 -7z m-836 -171 l0 -80 -37
-3 -38 -3 0 -55 0 -55 36 -3 c32 -3 38 -7 43 -34 3 -17 6 -46 6 -64 l0 -34
-70 0 -70 0 0 205 0 205 65 0 65 0 0 -79z m429 -126 l1 -205 -25 0 c-23 0 -25
4 -25 45 l0 45 -60 0 -60 0 0 -45 0 -45 -45 0 -46 0 2 50 3 50 58 0 c53 0 58
2 58 22 0 17 3 19 12 10 7 -7 31 -12 55 -12 l43 0 0 60 0 60 -45 0 c-25 0 -45
-4 -45 -10 0 -5 16 -10 35 -10 35 0 35 0 35 -45 0 -45 0 -45 -34 -45 -19 0
-38 5 -42 12 -4 7 -9 60 -9 118 -1 58 -3 113 -4 123 -1 15 -14 17 -121 17
l-120 0 0 -24 c0 -13 -6 -27 -12 -29 -10 -4 -9 -8 2 -16 13 -10 13 -11 0 -11
-13 0 -13 -1 0 -10 10 -6 11 -10 3 -10 -7 0 -13 -11 -13 -25 0 -14 5 -25 10
-25 6 0 10 -4 10 -9 0 -5 -8 -7 -19 -4 -16 4 -18 15 -18 89 l0 84 208 0 208 0
0 -205z m431 181 c0 -14 -5 -28 -11 -32 -7 -4 -8 -9 -1 -13 6 -3 12 -46 14
-95 l3 -89 -44 -26 c-24 -14 -51 -37 -60 -51 -12 -20 -10 -19 14 6 29 30 71
51 81 41 3 -3 8 -29 11 -59 l5 -55 -38 -6 c-22 -3 -119 -6 -216 -7 l-178 -1 1
206 0 205 210 0 209 0 0 -24z m-700 -51 c0 -54 0 -55 -30 -55 -25 0 -30 -4
-30 -25 0 -21 5 -25 30 -25 l30 0 0 -60 0 -60 -49 0 -49 0 0 140 0 140 49 0
49 0 0 -55z m120 -15 l0 -70 -55 0 -55 0 0 70 0 70 55 0 55 0 0 -70z m-230
-175 l0 -45 53 0 53 0 3 -50 2 -50 -71 0 -72 0 4 55 c1 30 0 55 -4 55 -14 0
-8 27 7 40 9 7 14 19 11 27 -3 7 -1 13 4 13 6 0 10 -20 10 -45z m-970 -200 c0
-38 -3 -45 -20 -45 -19 0 -20 -7 -20 -130 l0 -130 115 0 c70 0 115 -4 115 -10
0 -6 -50 -10 -130 -10 l-130 0 0 -165 c0 -103 -4 -165 -10 -165 -6 0 -10 123
-10 350 l0 350 45 0 45 0 0 -45z m1797 -147 c-9 -6 -8 -8 1 -8 8 0 12 -9 10
-22 -3 -20 -10 -23 -50 -26 -43 -3 -48 -1 -48 17 0 19 -6 21 -79 21 -43 0 -99
3 -125 6 -46 7 -46 7 -46 45 0 38 1 39 35 39 33 0 35 -2 35 -35 0 -19 5 -35
10 -35 6 0 10 20 10 45 l0 45 -46 0 -45 0 3 43 3 42 165 5 165 5 7 -90 c4 -64
3 -92 -5 -97z m-529 115 c3 -55 1 -63 -15 -63 -15 0 -17 7 -15 50 l4 50 -61 0
-61 0 0 -45 c0 -25 5 -45 10 -45 6 0 10 18 10 40 l0 40 45 0 45 0 0 -39 0 -38
-61 -6 c-34 -3 -86 -3 -115 0 l-54 6 0 38 c0 39 0 39 40 39 l40 0 0 -40 c0
-22 5 -40 10 -40 6 0 10 20 10 45 l0 45 -60 0 c-56 0 -70 6 -53 24 4 3 68 5
142 4 l136 -3 3 -62z m180 20 c2 -34 0 -43 -12 -43 -12 0 -16 -11 -16 -45 0
-54 17 -60 23 -7 l4 37 1 -43 c2 -36 -2 -45 -18 -49 -11 -3 -20 -14 -20 -24 0
-17 -8 -19 -65 -19 l-64 0 0 112 c0 61 2 115 5 120 3 5 40 8 82 6 l77 -3 3
-42z m-918 -273 c0 -113 -4 -180 -10 -180 -5 0 -10 -14 -10 -31 0 -26 -3 -30
-22 -27 -23 3 -23 4 -26 198 -1 107 0 200 2 207 3 7 19 13 36 13 l30 0 0 -180z
m120 -31 l0 -211 -31 26 c-17 14 -36 26 -42 26 -7 0 3 -9 21 -20 17 -11 32
-22 32 -25 0 -3 -20 -5 -45 -5 -41 0 -45 2 -45 25 0 14 6 25 13 26 10 0 10 2
0 6 -10 3 -13 50 -13 184 l0 179 55 0 55 0 0 -211z m280 111 c0 -25 -5 -40
-12 -41 -10 0 -10 -2 0 -6 7 -3 12 -23 12 -49 l0 -44 -55 0 -55 0 0 90 0 90
55 0 55 0 0 -40z m480 -110 c0 -93 1 -100 20 -100 19 0 20 -7 20 -120 l0 -120
-85 0 -85 0 1 212 c0 117 2 216 5 220 3 4 32 8 65 8 l59 0 0 -100z m394 48 c0
-27 3 -48 8 -48 4 0 8 -40 8 -89 0 -68 -4 -93 -16 -105 -14 -15 -14 -16 0 -16
13 0 16 -12 16 -59 0 -65 -6 -71 -82 -71 -29 0 -38 4 -39 18 -1 16 -2 16 -6 0
-4 -16 -18 -18 -119 -18 l-114 0 0 120 0 120 125 0 125 0 0 101 0 100 48 -3
47 -3 -1 -47z m-534 -18 c0 -50 -3 -60 -17 -60 -15 0 -17 8 -15 50 l4 50 -61
0 -61 0 0 -45 c0 -25 5 -45 10 -45 6 0 10 18 10 40 l0 40 45 0 45 0 0 -39 0
-38 -61 -6 c-34 -3 -86 -3 -115 0 l-54 6 0 38 c0 39 0 39 40 39 l40 0 0 -40
c0 -22 5 -40 10 -40 6 0 10 20 10 45 l0 45 -60 0 c-33 0 -60 4 -60 10 0 6 55
10 145 10 l145 0 0 -60z m430 -66 l0 -54 -120 0 -120 0 0 48 c0 27 2 51 5 54
3 3 57 5 120 5 l115 1 0 -54z m-430 -214 l0 -90 -147 2 c-128 1 -137 3 -68 8
l80 6 -72 2 c-71 2 -71 2 -78 33 -8 36 -3 44 22 34 35 -15 49 -12 48 9 -2 23
-29 34 -40 17 -3 -6 -13 -11 -21 -11 -14 0 -21 60 -7 73 3 4 69 7 145 7 l138
0 0 -90z m570 -207 l0 -73 -124 0 c-69 0 -127 3 -129 8 -2 4 -1 18 3 32 6 21
8 23 15 8 5 -13 19 -18 51 -18 l44 0 0 60 0 60 -43 0 c-24 0 -48 -5 -55 -12
-9 -9 -12 -8 -12 5 0 14 16 17 118 19 70 2 120 -1 124 -7 4 -5 8 -43 8 -82z
m-900 17 l0 -70 64 0 c71 0 76 5 76 83 0 37 0 37 40 37 l40 0 0 -45 0 -45 -40
0 c-22 0 -40 -4 -40 -10 0 -5 20 -10 45 -10 l45 0 0 61 0 61 -50 -4 c-28 -1
-50 0 -50 5 0 4 27 7 60 7 l60 0 0 -80 0 -80 -144 1 -144 1 1 58 c1 33 6 58
12 57 6 -1 9 8 7 21 -2 12 2 22 7 22 7 0 11 -27 11 -70z m530 0 l0 -70 50 0
c28 0 50 -4 50 -9 0 -6 -69 -10 -170 -10 -101 0 -170 4 -170 10 0 5 22 9 50 9
48 0 49 1 56 35 3 19 3 51 0 70 l-7 35 71 0 70 0 0 -70z m-282 -143 l-3 -42
-142 -2 -143 -2 0 44 0 43 146 1 145 1 -3 -43z m382 -1 l0 -44 -170 -1 -170 0
0 44 0 44 170 0 170 0 0 -43z m268 19 c7 -14 12 -35 12 -45 0 -19 -8 -20 -135
-19 l-135 0 0 38 c0 21 3 41 7 44 3 4 59 7 123 7 115 0 117 0 128 -25z m-949
-150 l2 -75 -29 0 c-47 0 -55 -20 -37 -97 4 -17 13 -23 34 -23 28 0 28 0 30
-70 l1 -70 -70 0 -70 0 0 205 0 205 69 0 68 0 2 -75z m51 -80 l0 -155 125 0
125 0 0 -50 0 -50 -144 0 -145 0 1 120 c0 116 13 164 21 78 l4 -43 1 46 c2 34
-2 48 -14 53 -12 5 -15 21 -13 81 2 66 4 75 20 75 18 0 19 -11 19 -155z m360
0 l0 -155 64 0 c62 0 65 1 70 28 3 15 4 84 2 155 l-3 127 58 0 59 0 0 -155 c0
-97 4 -155 10 -155 6 0 10 -22 10 -50 l0 -50 -100 0 -100 0 0 45 0 45 -60 0
-60 0 0 -45 c0 -25 -5 -45 -10 -45 -7 0 -10 23 -8 60 3 58 4 60 30 60 27 0 28
1 28 60 l0 60 -30 0 c-16 0 -30 5 -30 10 0 6 14 10 30 10 l30 0 0 60 c0 59 0
60 -28 60 -19 0 -29 5 -29 15 0 10 11 15 34 15 l33 0 0 -155z m550 131 c0 -14
-5 -28 -11 -32 -8 -4 -8 -8 0 -13 5 -4 13 -44 17 -89 6 -70 4 -85 -10 -101
-15 -16 -15 -19 -1 -24 11 -5 15 -21 15 -60 0 -53 -1 -55 -31 -61 -63 -12 -89
-8 -90 17 l-2 22 -4 -23 c-4 -20 -10 -22 -79 -22 l-74 0 0 50 0 50 50 0 c33 0
50 4 50 13 0 8 15 11 50 9 l50 -4 0 61 0 61 -45 0 c-25 0 -45 -4 -45 -10 0 -5
18 -10 40 -10 l40 0 0 -45 0 -45 -39 0 -38 0 -6 61 c-3 34 -3 86 0 115 l6 54
38 0 c39 0 39 0 39 -40 l0 -40 -40 0 c-22 0 -40 -4 -40 -10 0 -5 20 -10 45
-10 l45 0 0 61 0 61 -50 -4 c-42 -2 -50 0 -50 15 0 15 11 17 85 17 83 0 85 0
85 -24z m-790 -136 l0 -140 -55 0 -55 0 0 140 0 140 55 0 55 0 0 -140z m120
70 l0 -70 -55 0 -55 0 0 70 0 70 55 0 55 0 0 -70z m240 0 l0 -70 -55 0 -55 0
0 70 0 70 55 0 55 0 0 -70z"/>
<path d="M2670 8199 c0 -28 6 -46 18 -55 16 -12 15 -13 -5 -14 -21 0 -23 -5
-23 -60 l0 -60 150 0 150 0 0 59 0 58 -40 7 c-22 3 -66 3 -97 0 -48 -5 -56 -4
-45 7 6 7 12 32 12 56 l0 43 -60 0 -60 0 0 -41z"/>
<path d="M2670 7905 c0 -25 5 -45 10 -45 6 0 10 16 10 35 0 35 0 35 45 35 45
0 45 0 45 -35 0 -39 -2 -40 -72 -50 l-48 -6 0 -120 0 -119 150 0 150 0 0 119
0 119 -35 6 c-19 4 -63 4 -98 0 -51 -5 -60 -4 -49 7 6 7 12 32 12 56 l0 43
-60 0 -60 0 0 -45z m280 -130 l0 -55 -70 0 -70 0 0 55 0 55 70 0 70 0 0 -55z
m0 -115 l0 -50 -140 0 -140 0 0 50 0 50 140 0 140 0 0 -50z"/>
<path d="M971 7133 c0 -11 3 -13 6 -5 11 27 23 10 23 -33 0 -44 -14 -61 -23
-27 -3 9 -5 -27 -6 -80 l-1 -98 35 0 35 0 0 130 0 130 -35 0 c-27 0 -35 -4
-34 -17z"/>
<path d="M1361 7103 c0 -11 3 -13 6 -5 11 27 23 10 23 -33 0 -44 -14 -61 -23
-27 -3 9 -5 -27 -6 -82 l-1 -99 45 6 c26 2 48 7 51 10 3 2 5 24 5 48 1 72 1
73 -16 59 -12 -10 -15 -10 -15 4 0 9 8 16 20 16 18 0 20 5 17 48 -3 37 -7 47
-20 46 -9 -1 -17 4 -17 12 0 9 -12 14 -35 14 -27 0 -35 -4 -34 -17z"/>
<path d="M1020 6495 l0 -195 55 0 55 0 0 195 0 195 -55 0 -55 0 0 -195z m100
-75 c0 -103 -1 -110 -20 -110 -14 0 -20 7 -21 23 l-2 22 -4 -22 c-3 -15 -12
-23 -24 -23 -18 0 -19 8 -19 110 l0 110 45 0 45 0 0 -110z"/>
<path d="M2000 5995 l0 -65 240 0 240 0 0 65 0 65 -240 0 -240 0 0 -65z m470
0 l0 -55 -230 0 -230 0 0 55 0 55 230 0 230 0 0 -55z"/>
<path d="M3440 2695 l0 -155 59 0 59 0 5 43 c4 38 3 166 -1 240 -2 26 -4 27
-62 27 l-60 0 0 -155z"/>
<path d="M3450 1800 l0 -150 65 0 c60 0 65 2 65 22 0 17 3 19 12 10 7 -7 31
-12 55 -12 l43 0 0 60 0 60 -45 0 c-25 0 -45 -4 -45 -10 0 -5 16 -10 35 -10
35 0 35 0 35 -45 0 -45 0 -45 -34 -45 -19 0 -38 5 -42 12 -4 7 -9 60 -9 118
-1 58 -3 113 -4 123 -1 14 -11 17 -66 17 l-65 0 0 -150z m120 70 l0 -70 -55 0
-55 0 0 70 0 70 55 0 55 0 0 -70z"/>
<path d="M2210 583 c0 -10 -25 -13 -94 -13 -51 0 -108 -3 -125 -6 l-31 -6 2
-272 c1 -149 3 -247 5 -218 l4 52 44 0 44 0 4 -52 c2 -37 4 -26 5 35 l2 87 95
0 c88 0 95 1 95 20 0 17 -7 20 -45 20 -42 0 -44 1 -33 19 10 17 9 23 -6 40
-24 27 -68 27 -92 0 -15 -17 -16 -23 -6 -40 11 -18 9 -19 -33 -19 l-46 0 3
153 3 152 113 3 c114 3 125 7 102 42 -6 10 -10 11 -10 3z"/>
</g>
</svg>
